<?xml version="1.0" encoding="utf-8"?>
<!-- Generator: Adobe Illustrator 24.0.2, SVG Export Plug-In . SVG Version: 6.00 Build 0)  -->
<svg version="1.1" xmlns="http://www.w3.org/2000/svg" xmlns:xlink="http://www.w3.org/1999/xlink" x="0px" y="0px"
	 viewBox="0 0 480 480" style="enable-background:new 0 0 480 480;" xml:space="preserve">
<style type="text/css">
	.st0{opacity:0.5;fill:#CACECA;}
	.st1{fill:#9CEAA4;}
	.st2{fill:#9CDC9A;}
	.st3{fill:#87795D;}
	.st4{fill:#B3F9A4;}
	.st5{fill:#A0916D;}
	.st6{fill:#968769;}
	.st7{fill:#FFE072;}
	.st8{fill:#FFFE8A;}
	.st9{fill:#FFFEC8;}
	.st10{fill:#FFFEBB;}
	.st11{fill:#FEA9C9;}
	.st12{fill:#5E5646;}
	.st13{fill:#FEBDC9;}
	.st14{display:none;}
	.st15{display:inline;}
	.st16{fill:#FFFFFF;}
	.st17{fill:#87795D;stroke:#685D4A;stroke-miterlimit:10;}
	.st18{display:none;fill:#9CDC9A;}
	.st19{display:inline;fill:#9CDC9A;}
	.st20{clip-path:url(#XMLID_3_);}
	.st21{clip-path:url(#XMLID_3_);fill:#FEBDC9;}
	.st22{clip-path:url(#XMLID_3_);fill:#FFFFFF;}
</style>
<g id="botten">
	<ellipse class="st0" cx="242.5" cy="461.5" rx="153.5" ry="15.5"/>
	<path id="grund" class="st1" d="M247.73,467.98c16.06-0.28,97.61,0,119.85-8.65c0,0,11.12-22.24,17.3-50.66
		c6.18-28.42,21-77.84,32.12-102.55c0,0-2.45-5.17-9.88-2.47c-13.59,4.94-46.73,5.89-121.08,6.18
		c-82.78-7.41-210.04-4.94-210.04-4.94s-6.18-2.47-6.18,0c0,12.23,6.18,19.77,23.48,75.37s21,75.37,28.42,77.84
		C129.12,460.56,176.07,469.21,247.73,467.98z"/>
	<g id="veck">
		<path class="st2" d="M405.64,310.83c0,0-14.83,49.42-19.77,65.48c-4.94,16.06-14.83,55.6-14.83,55.6S389.58,387.43,405.64,310.83z
			"/>
		<path class="st2" d="M384.64,313.3c0,0-27.18,103.79-30.89,127.26c0,0,33.36-128.5,35.83-129.73c2.47-1.24-8.65-2.47-8.65-2.47
			L384.64,313.3z"/>
		<path class="st2" d="M372.28,314.54c0,0-17.3,63.01-22.24,95.14c0,0,25.95-95.14,25.95-97.61c0-2.47-7.41-1.24-7.41-1.24
			L372.28,314.54z"/>
		<path class="st2" d="M340.16,315.77c0,0-9.88,48.19-11.12,65.48s-9.88,60.54-9.88,60.54s27.18-127.26,28.42-128.5
			c1.24-1.24-12.36-3.71-11.12-1.24C337.69,314.54,340.16,315.77,340.16,315.77z"/>
		<path class="st2" d="M321.63,317.01c0,0-7.41,39.54-7.41,46.95l13.59-49.42c0,0-6.18-6.18-8.65-3.71S321.63,317.01,321.63,317.01z
			"/>
		<polygon class="st2" points="283.18,317.23 280.85,354.07 288.27,312.06 280.85,312.06 		"/>
		<path class="st2" d="M217.84,315.77c0,0,4.94,49.42,3.71,66.72c0,0-1.24-67.95,2.47-70.43
			C227.73,309.59,217.84,312.06,217.84,315.77z"/>
		<path class="st2" d="M198.79,316.93c0,0,7.93,48.26,7.93,68.03c0,0-2.47-69.19-3.71-72.9
			C201.78,308.36,197.04,315.62,198.79,316.93z"/>
		<path class="st2" d="M162.49,313.84c0,0,9.64,55.05,14.58,94.59l-8.71-94.26l1.29-3.35l-3.71-1.24l-3.71,3.71L162.49,313.84z"/>
		<path class="st2" d="M130.12,309.59c0,0,22.24,67.95,24.71,113.67c0,0-4.36-72.9-19.48-111.2l2.18-3.71l-3.71-1.24L130.12,309.59z
			"/>
		<path class="st2" d="M104.17,308.36c0,0,17.3,50.66,21,65.48c0,0-11.98-58.19-16.49-63.69l2.9-4.27l-1.24-1.24L104.17,308.36z"/>
		<path class="st2" d="M85.64,307.12c0,0,30.89,95.14,34.6,123.55c0,0-22.23-110.14-30.26-121.79l3.08-4.24L85.64,307.12z"/>
	</g>
	<path class="st3" d="M390.98,300.03l10.96,0.92c0,0,6.18,0,6.18,1.24s-7.41,3.71-7.41,3.71l-1.24,2.47h-4.94l-1.24,2.47h-4.94
		l-6.86-2.47h-0.56l1.24,3.71h-4.94l-6.18-2.47l-1.24,1.24v2.47h-7.41l-6.18-2.47l-1.24,3.71h-6.18l-7.41-3.71l-4.94,1.24l1.24,2.47
		h-7.41l-7.41-3.71h-3.71v4.94h-7.41l-6.18-4.94l-6.18,4.94h-7.41l-4.94-4.94l-6.18,1.24l-1.24,3.71h-8.65l-7.41-4.94l-6.18,6.18
		l-7.41-1.24l-6.18-3.71l-4.94,1.24l-1.24,3.71h-7.41l-3.71-6.18l-8.65,1.24l-2.47,4.94l-12.36-6.18l-8.65,6.18l-3.71-1.24
		l-1.24-4.94h-9.88l-3.71,3.71l-4.94-1.24l-3.71-4.94l-8.65,6.18l-4.94-2.47v-3.71l-6.18,1.24l-7.41,2.47l-2.47-4.94l-11.12,2.47
		l-2.47-1.24v-2.47l-6.18,2.47l-3.71,1.24h-3.71l1.24-4.94l-9.88,4.94v-3.71l-1.24-1.24l-7.41,3.71l-1.24-3.71l-7.41,2.47
		l-1.24-2.47l-6.18,1.24v-2.47c0,0,12.36-3.71,14.83-3.71c2.47,0,25.95,0,25.95,0h88.96l71.66,3.71l42.01-3.71l55.6-1.24
		L390.98,300.03z"/>
	<path id="kant" class="st4" d="M101.7,298.47c0,0-30.89,2.47-30.89,7.41s11.12,0,11.12,0s-1.24,2.47,1.24,2.47
		c2.47,0,7.41-2.47,7.41-2.47s-2.47,3.71,1.24,3.71c3.71,0,8.65-3.71,8.65-3.71s-4.94,4.94,0,4.94c4.94,0,7.41-4.94,9.88-4.94
		c2.47,0-6.18,4.94,1.24,4.94s8.65-3.71,11.12-3.71c2.47,0-4.94,4.94,1.24,4.94c6.18,0,7.41-3.71,11.12-3.71
		c3.71,0-3.71,4.94,3.71,4.94s7.41-3.71,12.36-3.71c4.94,0-3.71,6.18,4.94,6.18s6.18-4.94,11.12-4.94c4.94,0-3.71,4.94,6.18,4.94
		s3.71-3.71,12.36-3.71s-2.47,6.18,7.41,6.18s3.71-4.94,11.12-4.94s2.47,4.94,9.88,4.94s1.24-4.94,9.88-4.94s0,6.18,12.36,6.18
		c12.36,0-1.24-6.18,6.18-6.18s3.71,4.94,14.83,4.94c11.12,0,0-4.94,6.18-4.94c6.18,0,3.71,4.94,14.83,4.94
		c11.12,0-1.24-4.94,6.18-4.94c7.41,0,1.24,4.94,14.83,4.94c13.59,0-2.47-4.94,4.94-4.94c7.41,0,2.47,4.94,13.59,4.94
		c11.12,0-1.24-6.18,3.71-6.18s2.47,4.94,14.83,4.94c12.36,0-3.71-4.94,3.71-4.94c7.41,0,3.71,3.71,13.59,3.71
		c9.88,0-1.24-3.71,3.71-3.71c4.94,0,1.24,3.71,11.12,3.71c9.88,0-1.24-4.94,2.47-4.94c3.71,0,2.47,3.71,11.12,3.71
		c8.65,0-2.47-4.94,1.24-4.94s4.94,3.71,11.12,3.71c6.18,0-1.24-3.71,2.47-3.71s3.71,2.47,8.65,2.47c4.94,0-4.94-4.94-1.24-4.94
		s2.47,2.47,7.41,2.47c4.94,0-3.71-3.71-1.24-3.71c2.47,0,2.47,1.24,6.18,1.24s-1.24-4.94-9.88-6.18
		c-8.65-1.24-23.48-1.24-23.48-1.24s25.33,1.85,22.86,3.09s-9.88,0-6.18,1.24s-6.18,0-4.94,1.24s4.94,2.47,2.47,2.47
		s-6.18-2.47-9.88-2.47c-3.71,0,8.65,4.94,4.94,4.94c-3.71,0-6.18-4.94-13.59-3.71c-7.41,1.24,4.94,4.94,1.24,4.94
		s-7.41-3.71-13.59-3.71c-6.18,0,4.94,4.94,1.24,4.94s-7.41-3.71-13.59-3.71c-6.18,0,3.71,4.94-1.24,4.94
		c-4.94,0-6.18-6.18-16.06-4.94c-9.88,1.24,4.94,4.94-3.71,4.94c-8.65,0-2.47-4.94-12.36-4.94c-9.88,0,2.47,6.18-4.94,6.18
		c-7.41,0,1.24-6.18-12.36-6.18s3.71,6.18-6.18,6.18c-9.88,0-1.24-6.18-12.36-6.18c-11.12,0-1.24,6.18-8.65,6.18
		c-7.41,0,0-6.18-12.36-6.18c-12.36,0,1.24,6.18-8.65,6.18c-9.88,0,0-4.94-11.12-4.94s-2.47,4.94-11.12,4.94s2.47-7.41-9.88-7.41
		s-1.24,7.41-9.88,6.18c-8.65-1.24,0-6.18-8.65-6.18s-3.71,7.41-11.12,7.41s3.71-4.94-7.41-6.18s-7.41,7.41-12.36,3.71
		c-4.94-3.71,3.71-4.94-6.18-4.94s-6.18,8.65-11.12,4.94c-4.94-3.71,4.94-3.71-2.47-4.94c-7.41-1.24-12.36,4.94-13.59,2.47
		s2.47-3.71-3.71-3.71c-6.18,0-6.18,2.47-9.88,2.47s2.47-3.71-2.47-3.71s-13.59,7.41-12.36,2.47s-1.24-3.71-1.24-3.71
		s-7.41,4.94-8.65,3.71s4.94-4.94,2.47-4.94c-2.47,0-9.88,4.94-11.12,3.71s6.18-2.47,2.47-3.71c-3.71-1.24-7.41,3.71-9.88,2.47
		c-2.47-1.24,1.24-1.24,0-2.47c-1.24-1.24-7.41,3.71-7.41,1.24s22.24-4.94,23.48-4.94S102.32,297.86,101.7,298.47z"/>
</g>
<g id="muffin">
	<path class="st5" d="M111.59,277.47c-7.41,2.47-27.18,25.95-21,24.71c6.18-1.24,8.65,0,8.65,1.24s3.71-3.71,6.18-2.47
		c2.47,1.24,0,2.47,1.24,3.71s3.71-3.71,7.41-2.47c3.71,1.24-1.24,3.71,1.24,3.71c2.47,0,8.65-4.94,11.12-2.47
		c2.47,2.47,0,3.71,2.47,3.71c2.47,0,4.94-3.71,9.88-2.47c4.94,1.24,1.24,3.71,3.71,3.71c2.47,0,7.41-3.71,11.12-2.47
		c3.71,1.24,4.94,2.47,4.94,3.71s2.47,0,3.71-2.47c1.24-2.47,9.88-3.71,11.12-1.24c1.24,2.47,0,2.47,1.24,3.71s4.94-3.71,7.41-3.71
		c2.47,0,9.88,0,11.12,4.94c1.24,4.94,3.71-2.47,7.41-3.71c3.71-1.24,9.88-2.47,11.12,0s2.47,3.71,3.71,2.47s2.47-3.71,7.41-3.71
		c4.94,0,8.65,1.24,8.65,4.94c0,3.71,6.18,2.47,6.18-1.24s12.36-3.71,13.59,0s3.71,4.94,4.94,3.71c1.24-1.24,0-3.71,2.47-4.94
		c2.47-1.24,11.12-2.47,13.59,0s3.71,4.94,4.94,3.71s0-4.94,3.71-4.94c3.71,0,9.88,0,12.36,3.71c2.47,3.71,4.94,1.24,3.71-1.24
		c-1.24-2.47,6.18-4.94,8.65-3.71s6.18,1.24,7.41,4.94c1.24,3.71,3.71-1.24,3.71-2.47s6.18-2.47,9.88,0s3.71,2.47,4.94,2.47
		s0-3.71,3.71-3.71c3.71,0,12.36,1.24,14.83,3.71s0-3.71,1.24-4.94s7.41,3.71,9.88,2.47s1.24-3.71,4.94-3.71s4.94,2.47,7.41,2.47
		c2.47,0,1.24-1.24,3.71-2.47s6.18,1.24,7.41,1.24s1.24-2.47,2.47-2.47s4.94,2.47,6.18,1.24s-7.41-22.24-21-25.95
		C358.69,275,111.59,277.47,111.59,277.47z"/>
	<path class="st6" d="M384.97,287.9c-3.41-4.17-7.71-7.84-12.68-9.2c-10.17-2.77-151.13-2.09-221.42-1.57l-49.37,8.09
		c-7.6,7.6-15.03,17.77-10.91,16.95c6.18-1.24,8.65,0,8.65,1.24s3.71-3.71,6.18-2.47c1.73,0.87,1.04,1.73,0.89,2.6
		c1.09-0.09,2.21-0.19,3.34-0.28c1.2-0.87,2.67-1.66,4.42-1.08c0.54,0.18,0.88,0.39,1.1,0.61c12.83-1.1,26.46-2.3,30.84-2.79
		c9-1,23-4,29-4s29,6,63,5s43-7,49-7s37,5,61,3s23-6,26-7C375.92,289.36,380.72,288.31,384.97,287.9z"/>
</g>
<g id="frosting">
	<path class="st7" d="M385.87,279.94c-4.94,3.71-7.41,6.18-22.24,2.47c0,0,23.48-12.36,24.71-12.36S390.82,276.23,385.87,279.94z"/>
	<path class="st8" d="M375.99,278.7c7.97-5.98,34.6-14.83,14.83-32.12l-116.14,40.77C274.68,287.35,351.28,297.24,375.99,278.7z"/>
	<path class="st9" d="M372.28,223.11c0,0,51.89,14.83,3.71,33.36s-103.17,41.39-150.12,38.92c0,0,29.65,0,69.19-13.59
		s91.43-32.12,90.19-42.01S371.67,223.72,372.28,223.11z"/>
	<path class="st8" d="M276.53,265.73c12.36-3.71,66.72-17.3,88.96-28.42s8.65-13.59,8.65-13.59s17.3,8.65,14.83,14.83
		c-2.47,6.18-16.6,21.74-91.96,46.45c0,0-32,9-49,10c-12.4,0.73-55.49,2.86-80.2-7.03L276.53,265.73z"/>
	<path class="st9" d="M109.73,276.85c17.58-5.86,88.96-2.47,129.73-9.88s98.84-21,117.38-28.42s27.18-18.53,9.88-17.3
		c0,0,6.18-2.47,11.12,0s4.94,11.12-16.06,19.77s-90.19,35.83-151.97,44.48S99.85,301.56,88.73,297.86
		C77.61,294.15,106.03,278.09,109.73,276.85z"/>
	<path class="st7" d="M359.31,221.25c-3.89,0.35,3.45,14.17-20.51,23.15c0,0,25.69-6.41,31.02-11.41
		C375.14,227.99,386.49,218.78,359.31,221.25z"/>
	<path class="st8" d="M369.19,210.13c3.09,9.27-9.88,28.42-32.12,34.6c-22.24,6.18-85.25,22.24-118.61,27.18
		c-33.36,4.94-109.96,14.83-116.14,14.83s-24.71,2.47-16.06-3.71s25.95-16.06,60.54-18.53s143.32-28.42,154.44-32.12
		c11.12-3.71,49.42-13.59,59.31-30.89C360.55,201.48,366.82,203,369.19,210.13z"/>
	<path class="st9" d="M346.95,182.95c6.18,0,17.3,1.24,18.53,8.65s-2.47,19.77-16.06,27.18c-13.59,7.41-75.37,27.18-122.32,35.83
		S125,267,115,270c-7.2,2.16-34.33,13.1-29.68,16.77c0,0-6.47-0.03-2.77-7.45c3.71-7.41,9.88-17.3,22.24-19.77
		c12.36-2.47,95.14-7.41,108.73-8.65c13.59-1.24,109.96-21,132.2-37.07s18.53-27.18,0-27.18L346.95,182.95z"/>
	<path class="st8" d="M75.14,258.32c4.88-3.79,74.13-18.53,147.03-23.48c72.9-4.94,109.96-14.83,123.55-24.71s18.53-22.24-1.24-21
		l-1.24-3.71c0,0,16.06-1.24,18.53,4.94c2.47,6.18,1.24,21-33.36,33.36c-34.6,12.36-98.84,27.18-150.74,30.89s-78.32,7-92.29,19.56
		C85.4,274.18,64.02,266.97,75.14,258.32z"/>
	<path class="st7" d="M308.65,211.37c10.12-5.78,35.83-24.71,42.01-23.48c6.18,1.24,9.88,3.71,7.41,8.65
		c-2.47,4.94-4.94,11.12-19.77,18.53c-14.83,7.41-58.07,17.3-76.6,17.3C261.7,232.37,300,216.31,308.65,211.37z"/>
	<path class="st10" d="M322.24,169.36c-1.71-0.34,13.59-2.47,21,0c7.41,2.47,12.36,14.83,2.47,23.48
		c-9.88,8.65-72.9,39.54-105.02,44.48c-32.12,4.94-79.07,9.88-101.31,12.36s-72.9,7.41-65.48,14.83c7.41,7.41,8.65,8.65,8.65,9.88
		s-19.77-11.12-11.12-17.3c8.65-6.18,9.88-3.71,11.12-6.18c1.24-2.47-9.88-4.94-7.41-11.12c2.47-6.18,13.59-6.18,16.06-8.65
		c2.47-2.47-1.24-8.65,2.47-11.12s34.6,0,51.89,3.71c17.3,3.71,86.49,7.41,126.02-11.12s65.48-19.77,67.95-30.89
		S328.42,170.6,322.24,169.36z"/>
	<path class="st8" d="M276.53,191.6c7.14-4.22,46.95-25.95,49.42-25.95s22.24,9.88,13.59,19.77c-8.65,9.88-67.95,32.12-85.25,35.83
		s-65.48,9.88-69.19,7.41C181.39,226.19,249.35,207.66,276.53,191.6z"/>
	<path class="st9" d="M304.95,173.07c4.23-1.41,11.12-2.47,12.36,1.24c1.24,3.71-23.48,12.36-28.42,16.06
		c-4.94,3.71-56.83,25.95-66.72,28.42c-9.88,2.47-38.3,11.12-40.77,11.12c-2.47,0,0-4.94,4.94-6.18s53.13-17.3,66.72-23.48
		C266.64,194.07,301.24,174.3,304.95,173.07z"/>
	<path class="st8" d="M176.45,229.9c-9.59,2.4-50.66-2.47-54.36-6.18c-3.71-3.71,17.3-11.12,27.18-13.59s182.86-32.12,170.5-63.01
		c0,0,8.65,4.94,8.65,11.12c0,6.18-2.24,8-19.65,15.74S220.93,218.78,176.45,229.9z"/>
	<path class="st9" d="M309.89,129.82c4.1,4.62,17.3,19.77,12.36,28.42s-65.48,30.89-87.72,35.83c-22.24,4.94-86.49,17.3-92.67,19.77
		c-6.18,2.47-17.3,7.41-24.71,7.41c-7.41,0,18.53-19.77,58.07-25.95c39.54-6.18,106.26-19.77,122.32-30.89
		c16.06-11.12,23.48-13.59,8.65-32.12s-30.89-39.54-35.83-61.78s-8.65-42.01,6.18-51.89c0,0-9.88,11.12-6.18,29.65
		s13.59,29.65,16.06,37.07C288.88,92.76,300,118.7,309.89,129.82z"/>
	<path class="st8" d="M265.41,27.27c3.71,0,1.24,17.3,2.47,22.24s9.88,28.42,9.88,32.12s12.36,25.95,16.06,30.89
		s19.77,25.95,21,29.65c1.24,3.71,4.94,13.59-18.53,25.95c-23.48,12.36-106.26,28.42-121.08,30.89
		c-14.83,2.47-44.48,11.12-53.13,18.53c-8.65,7.41-19.77,6.18-21,2.47c-1.24-3.71,1.24-16.06,8.65-18.53
		c7.41-2.47,3.71-12.36,8.65-16.06c4.94-3.71,13.59-14.83,24.71-12.36c11.12,2.47,19.77-3.71,23.48-12.36
		c3.71-8.65,7.41-22.24,18.53-27.18c11.12-4.94,19.77-12.36,29.65-32.12s33.36-53.13,34.6-54.36
		C250.58,45.81,265.41,27.27,265.41,27.27z"/>
	<path class="st7" d="M287.65,161.95c7.49-4.49,9.88-12.36,8.65-23.48s-12.36-17.3-17.3-24.71c-4.94-7.41-7.41-21-7.41-25.95
		s-4.94-13.59-7.41-16.06c-2.47-2.47-2.47-14.83-1.24-21s1.85-13.19,4.63-14.01c2.78-0.82-0.68,11.66,1.05,15.3
		c1.73,3.65,9.02,23.95,8.46,26.15c-0.56,2.21,0.68,10.85,3.15,14.56c2.47,3.71,3.71,17.3,4.94,21s16.06,14.83,18.53,21
		c2.47,6.18,8.65,11.12,2.47,18.53s-18.53,14.83-33.36,18.53c-14.83,3.71-24.71,0-30.89,2.47s-19.77,3.71-22.24,2.47
		c-2.47-1.24,14.83-4.94,25.95-6.18C256.76,169.36,275.29,169.36,287.65,161.95z"/>
	<path class="st7" d="M261.7,37.16c0,0-13.59,19.77-16.06,24.71c-2.47,4.94-11.12,32.12-12.36,39.54
		c-1.24,7.41-3.71,19.77-2.47,23.48s13.59,8.65,25.95,7.41c12.36-1.24,21,2.47,14.83,7.41c-6.18,4.94-81.55,37.07-93.9,39.54
		c-12.36,2.47,19.77,0,28.42-2.47c8.65-2.47,46.95-12.36,56.83-17.3c9.88-4.94,24.71-13.59,25.95-22.24s-8.65-13.59-14.83-13.59
		c-6.18,0-21-2.47-19.77-18.53S249.35,59.4,261.7,37.16z"/>
	<path class="st10" d="M259.23,27.27c6.83-9.11,21-17.3,29.65-14.83s-8.65,6.18-12.36,13.59c-3.71,7.41-7.81,11.92-8.23,18.93
		s2.05-16.46,2.05-16.46s-7.41,18.53-6.18,27.18s7.74,21.54,9.43,25.6s1.69,10.23,1.69,15.18s3.71,21,17.3,28.42
		s-12.36,32.12-50.66,44.48c-38.3,12.36-24.71,12.36-14.83,11.12s23.48,3.71,9.88,7.41c-13.59,3.71-117.38,19.77-126.02,18.53
		c-8.65-1.24-7.02-2.54,0.2-5.59c7.21-3.06-3.91,3.12-0.2,3.12s33.36-3.71,43.24-12.36c9.88-8.65-31.79-3.02-38.75-0.27
		c-6.96,2.74-2.02-8.38,6.63-10.85c8.65-2.47,23.48,2.47,33.36,2.47s37.07,0,54.36-4.94c17.3-4.94,59.31-24.71,66.72-32.12
		c7.41-7.41,11.12-13.59,2.47-17.3c-8.65-3.71-22.24,1.24-28.42-11.12c-6.18-12.36,0-25.95,0-37.07s-2.47-18.53,0-22.24
		c2.47-3.71,12.36-18.53,12.36-23.48s-17.3,29.65-18.53,34.6s-3.71,21-3.71,25.95s-6.18,16.06-4.94,22.24
		c1.24,6.18,1.24,9.88,9.88,11.12s16.06,0,21,1.24s2.47,6.18-17.3,13.59c-19.77,7.41-53.13,21-60.54,27.18
		c-7.41,6.18-22.24,11.12-28.42,9.88c-6.18-1.24-13.64-3.87-13-6.88c0.64-3.01,4.6,3.47,12.51-4.09c7.9-7.56,4.2-0.15,7.9,2.32
		c3.71,2.47,16.06-4.94,22.24-8.65c6.18-3.71,35.83-16.06,46.95-19.77c11.12-3.71,28.42-8.65,21-9.88
		c-7.41-1.24-24.71,1.24-30.89-1.24c-6.18-2.47-7.41-14.83-3.71-22.24c3.71-7.41,11.12-23.48,12.36-29.65
		c1.24-6.18-6.18,1.24-9.88,7.41c-3.71,6.18-6.18,18.53-11.12,25.95c-4.94,7.41-13.59,13.59-18.53,17.3
		c-4.94,3.71-21,29.65-35.83,32.12c-14.83,2.47-6.18-19.77,4.94-23.48c11.12-3.71,12.36-7.41,14.83-11.12
		c2.47-3.71,12.36-11.12,17.3-12.36c4.94-1.24,9.88-16.06,12.36-22.24c2.47-6.18,9.88-17.3,16.06-22.24
		c6.18-4.94,12.36-21,16.06-27.18S255.53,32.21,259.23,27.27z"/>
	<path class="st7" d="M121.47,225.94c2.34-2.1,7.13-2.98,10.36-4.4c3.23-1.42,18.05-4.75,25.47-5.58
		c7.41-0.83,27.09,1.19,40.77,1.66C209,218,234,203,244.41,204.74C242,206,242,206,238.25,207.42c-5.42,2.05-46.69,20.5-55.79,22
		c-9.1,1.5-14.04,2.33-26.4,2.33C143.71,231.75,117.76,229.26,121.47,225.94z"/>
</g>
<g id="stjärna">
	<polygon class="st11" points="359.87,19.23 367.07,53.66 400.7,66.19 369.02,84.76 366.18,119.87 340.23,96.34 306.2,104.59 
		320.49,72.4 301.86,41.48 337.08,46.02 	"/>
	<path class="st12" d="M341.39,84.73c4.56-2.28,3.71,2.47,3.71,4.94c0,2.47-21,130.97-21,130.97l-8.65,2.47l23.48-133.44
		C338.92,89.67,338.92,85.96,341.39,84.73z"/>
	<path class="st13" d="M359.47,20.96l7.35,31.33l31.05,12.63l-28.77,15.6l-2.25,31.8l-21.4-18.47c-2.34-2.02-5.5-2.83-8.52-2.17
		l-27.63,5.98l13.24-29l-17.8-27.46l33.31,3.76L359.47,20.96z"/>
</g>
<g id="ansikte" class="st14">
	<path id="mun" class="st15" d="M228,432c0.89-2.68,20,4,20,6S227,435,228,432z"/>
	<g id="ögonbryn" class="st15">
		<path d="M253.79,369.49c-4.25-1.4-3.13-7.63,1.67-9.34c0,0-1.52,2.7-0.7,2.12c1.83-1.28,16.94-8.54,26.14-7.86
			c-1.98,0.29-3.65,1.54-2.82,1.42c7.92-1.16,27.6,9.11,26.76,10.24c-0.85,1.13-14.31-8.02-22.08-5.87
			C274.98,362.36,264.41,373,253.79,369.49z"/>
		<path d="M223.47,347.44c3.65-0.35,8.39-5.06,4.57-9.23c0,0,0.8,1.99-0.09,2c0,0-0.87-3.04-3.82-4.17c0,0,0.96,1.04,0.91,2.04
			c0,0-19.55-9.98-29.31-8.98c-9.76,1-25.65,9.17-24.75,10.94c0.91,1.77,18.56-8.2,26.58-5.63
			C205.59,336.99,212.82,348.45,223.47,347.44z"/>
	</g>
	<g id="öga" class="st15">
		<circle class="st2" cx="199" cy="371" r="21"/>
		<circle class="st16" cx="199" cy="371" r="19"/>
		<circle class="st17" cx="196" cy="365" r="11"/>
		<circle class="st5" cx="195" cy="364" r="9"/>
		<circle cx="195" cy="364" r="7"/>
		<circle class="st16" cx="201.5" cy="360.5" r="2.5"/>
		<path class="st2" d="M199.35,378.04h21.5c0,7.95-9.71,14.5-21.5,14.5c-11.79,0-21.5-6.55-21.5-14.5H199.35z"/>
	</g>
	<g id="öga_1_" class="st15">
		<circle class="st2" cx="283" cy="385" r="21"/>
		<circle class="st16" cx="283.35" cy="385.05" r="19"/>
		<circle class="st17" cx="280.35" cy="379.05" r="11"/>
		<circle class="st5" cx="279.35" cy="378.05" r="9"/>
		<circle cx="279.35" cy="378.05" r="7"/>
		<circle class="st16" cx="285.85" cy="374.55" r="2.5"/>
		<path class="st2" d="M283.71,392.09h21.5c0,7.95-9.71,14.5-21.5,14.5s-21.5-6.55-21.5-14.5H283.71z"/>
	</g>
</g>
<g id="ansikte-glad" class="st14">
	<g id="öga_3_" class="st15">
		<circle class="st2" cx="199" cy="371" r="21"/>
		<circle class="st16" cx="199" cy="371" r="19"/>
		<circle class="st17" cx="199" cy="371" r="11"/>
		<circle class="st5" cx="199" cy="371" r="9"/>
		<circle cx="199" cy="371" r="7"/>
		<circle class="st16" cx="204" cy="367" r="4"/>
		<path class="st18" d="M199.13,383.64h21.5c0,5.1-9.71,9.3-21.5,9.3c-11.79,0-21.5-4.2-21.5-9.3H199.13z"/>
	</g>
	<g id="öga_2_" class="st15">
		<circle class="st2" cx="283" cy="371" r="21"/>
		<circle class="st16" cx="283.35" cy="371.05" r="19"/>
		<circle class="st17" cx="284.35" cy="371.05" r="11"/>
		<circle class="st5" cx="284.35" cy="371.05" r="9"/>
		<circle cx="284" cy="371" r="7"/>
		<path class="st18" d="M283.71,383.3h21.5c0,5.1-9.71,9.3-21.5,9.3s-21.5-4.2-21.5-9.3H283.71z"/>
		<circle class="st16" cx="289" cy="367" r="4"/>
	</g>
	<g id="ögonbryn_1_" class="st15">
		<path d="M266.88,336.53c-3.71-2.5-0.95-8.19,4.13-8.54c0,0-2.19,2.18-1.25,1.85c2.11-0.73,18.62-3.63,27.29-0.49
			c-1.98-0.26-3.93,0.5-3.1,0.61c7.93,1.03,24.11,16.24,22.99,17.1c-1.12,0.86-11.6-11.59-19.67-11.63S276.16,342.77,266.88,336.53z
			"/>
		<path d="M215.61,340.01c3.57-0.82,7.65-6.11,3.31-9.75c0,0,1.05,1.87,0.18,1.99c0,0-1.26-2.9-4.34-3.63c0,0,1.08,0.91,1.17,1.9
			c0,0-20.69-7.33-30.23-5.06s-24.23,12.46-23.1,14.09c1.13,1.63,17.32-10.57,25.61-9.07C196.51,331.99,205.19,342.41,215.61,340.01
			z"/>
	</g>
	<path class="st19" d="M242.03,413.9c15.91,0,40.3-2.3,51.97-6.9c0,13.8-12.73,46-53.03,46c-37.12,0-51.97-34.5-51.97-44.85
		C201.73,411.6,228.24,413.9,242.03,413.9z"/>
	<g id="mun_1_" class="st15">
		<defs>
			<path id="XMLID_1_" d="M242,417c15,0,38-2,49-6c0,12-12,40-50,40c-35,0-49-30-49-39C204,415,229,417,242,417z"/>
		</defs>
		<use xlink:href="#XMLID_1_"  style="overflow:visible;"/>
		<clipPath id="XMLID_3_">
			<use xlink:href="#XMLID_1_"  style="overflow:visible;"/>
		</clipPath>
		<g class="st20">
			<g>
				<path class="st16" d="M194.63,417.06c-0.15-1.59-0.3-3.17-0.45-4.76c-0.63,0.48-1.27,0.96-1.9,1.45
					c25.29,5.35,51.45,6.45,77.1,3.15c7.22-0.93,14.39-2.18,21.49-3.78c-0.62-0.62-1.23-1.23-1.85-1.85
					c-0.24,1.54-0.47,3.07-0.71,4.61c-0.29,1.89,2.6,2.7,2.89,0.8c0.24-1.54,0.47-3.07,0.71-4.61c0.18-1.13-0.64-2.12-1.85-1.85
					c-24.81,5.58-50.52,6.95-75.78,4.08c-7.12-0.81-14.2-1.97-21.21-3.46c-0.87-0.18-2,0.41-1.9,1.45c0.15,1.59,0.3,3.17,0.45,4.76
					C191.81,418.97,194.81,418.99,194.63,417.06L194.63,417.06z"/>
			</g>
		</g>
		<path class="st21" d="M243,438c4,0,11.5-2.5,18.5-2.5s20,4,20,4l-32,17l-37-3l-14-14c0,0,12-4,25-4S239,438,243,438z"/>
		<path class="st22" d="M241,446c17,0,35-3,35-3l-22,13h-29l-19-13C206,443,224,446,241,446z"/>
		<g class="st20">
			<g>
				<path class="st16" d="M269.08,444.33c-16.93,7.04-36.27,7.08-53.22,0.1c-1.78-0.73-2.56,2.17-0.8,2.89
					c13.52,5.57,28.7,6.78,42.98,3.64c4.05-0.89,8.01-2.15,11.84-3.74c0.75-0.31,1.27-0.99,1.05-1.85
					C270.74,444.67,269.83,444.02,269.08,444.33L269.08,444.33z"/>
			</g>
		</g>
		<g class="st20">
			<g>
				<path class="st13" d="M276.49,438.73c-1.92,1.18-3.91,2.24-5.96,3.18c-0.72,0.33-0.95,1.42-0.54,2.05
					c0.48,0.74,1.29,0.89,2.05,0.54c2.05-0.94,4.04-2,5.96-3.18c0.67-0.41,0.98-1.36,0.54-2.05
					C278.11,438.59,277.21,438.29,276.49,438.73L276.49,438.73z"/>
			</g>
		</g>
		<g class="st20">
			<g>
				<path class="st13" d="M205.77,440.31c0.32,0.21,0.62,0.43,0.92,0.65c0.02,0.02,0.24,0.18,0.11,0.08
					c-0.13-0.1,0.09,0.07,0.11,0.09c0.16,0.12,0.31,0.25,0.47,0.37c0.65,0.52,1.3,1.04,2,1.5c1.33,0.89,2.86,1.51,4.48,1.56
					c0.79,0.02,1.54-0.71,1.5-1.5c-0.04-0.83-0.66-1.48-1.5-1.5c-0.16,0-0.34,0-0.5-0.03c0.39,0.07-0.14-0.04-0.21-0.06
					c-0.32-0.08-0.64-0.18-0.95-0.31c0.33,0.14-0.16-0.08-0.21-0.11c-0.15-0.08-0.3-0.16-0.44-0.24c-0.29-0.17-0.57-0.35-0.85-0.54
					c-0.15-0.1-0.29-0.21-0.43-0.31c-0.04-0.03-0.48-0.37-0.23-0.17c-0.28-0.22-0.56-0.44-0.84-0.66c-0.62-0.49-1.25-0.98-1.91-1.42
					c-0.66-0.43-1.69-0.15-2.05,0.54C204.84,439.01,205.07,439.85,205.77,440.31L205.77,440.31z"/>
			</g>
		</g>
		<path id="tänder" class="st22" d="M291,411c-11,4-34,6-49,6c-13,0-38-2-50-5c0,1.65,0.47,4,1.45,6.74
			c10.5,2.63,30.73,6.59,46.55,6.26c18.68-0.4,40.01-3.45,50.04-7.26C290.7,415.21,291,412.9,291,411z"/>
	</g>
</g>
<g id="ansikte-ledsen">
	<g id="öga_5_">
		<circle class="st2" cx="199" cy="385" r="21"/>
		<circle class="st16" cx="199" cy="385" r="19"/>
		<circle class="st17" cx="199" cy="392" r="11"/>
		<circle class="st5" cx="199" cy="394" r="8"/>
		<circle cx="199" cy="395" r="6"/>
		<circle class="st16" cx="204.5" cy="394.5" r="1.5"/>
		<path class="st2" d="M199.5,391.77H175c0-14.94,11.06-27.23,24.5-27.23s24.5,12.29,24.5,27.23H199.5z"/>
	</g>
	<g id="öga_6_">
		<circle class="st2" cx="284" cy="385" r="21"/>
		<circle class="st16" cx="284" cy="385" r="19"/>
		<circle class="st17" cx="284" cy="392" r="11"/>
		<circle class="st5" cx="284" cy="394" r="8"/>
		<circle cx="284" cy="395" r="6"/>
		<circle class="st16" cx="289.5" cy="394.5" r="1.5"/>
		<path class="st2" d="M284.5,391.77H260c0-14.94,11.06-27.23,24.5-27.23s24.5,12.29,24.5,27.23H284.5z"/>
	</g>
	<path id="mun_2_" d="M241.08,443.97c5-0.19,9.11,2.65,11.11,2.57c2-0.08-4.36-9.18-11.38-9.74c-7.03-0.56-14.75,6.75-11.71,7.63
		C232.13,445.32,238.08,444.09,241.08,443.97z"/>
	<g id="ögonbryn_2_">
		<path d="M272.22,355.37c-3.07-3.25,0.87-8.2,5.91-7.42c0,0-2.62,1.65-1.63,1.53c2.22-0.25,18.97,0.55,26.73,5.52
			c-1.88-0.69-3.95-0.38-3.16-0.09c7.51,2.75,19.95,21.14,18.67,21.74s-8.77-13.86-16.63-15.67
			C294.25,359.17,279.89,363.5,272.22,355.37z"/>
		<path d="M208.1,356.45c3.14-1.89,5.37-8.19,0.11-10.3c0,0,1.58,1.44,0.79,1.84c0,0-2.1-2.36-5.25-2.1c0,0,1.31,0.53,1.71,1.44
			c0,0-21.94-0.52-30.3,4.61c-8.36,5.13-19.14,19.38-17.56,20.58c1.58,1.2,13.17-15.44,21.52-16.59
			C187.45,354.78,198.94,361.97,208.1,356.45z"/>
	</g>
</g>
</svg>
