<?xml version="1.0" encoding="utf-8"?>
<!-- Generator: Adobe Illustrator 24.0.2, SVG Export Plug-In . SVG Version: 6.00 Build 0)  -->
<svg version="1.1" xmlns="http://www.w3.org/2000/svg" xmlns:xlink="http://www.w3.org/1999/xlink" x="0px" y="0px"
	 viewBox="0 0 480 480" style="enable-background:new 0 0 480 480;" xml:space="preserve">
<style type="text/css">
	.st0{opacity:0.25;fill:#4C4C4C;}
	.st1{fill:url(#SVGID_1_);}
	.st2{fill:#FEC8C9;}
	.st3{fill:#FEACC9;}
	.st4{fill:#9CD19D;}
	.st5{fill:url(#SVGID_2_);}
	.st6{fill:url(#SVGID_3_);}
	.st7{fill:url(#SVGID_4_);}
	.st8{fill:url(#SVGID_5_);}
	.st9{fill:#9CEAA4;}
	.st10{fill:#A6EFA4;}
	.st11{fill:#9CE2A4;}
	.st12{fill:url(#SVGID_6_);}
	.st13{display:none;}
	.st14{display:inline;}
	.st15{fill:#FFFFFF;}
	.st16{fill:#9CDAA4;stroke:#9CCB96;stroke-width:3;stroke-miterlimit:10;}
	.st17{fill:#FE96C9;}
	.st18{fill:#FE82B8;}
	.st19{fill:url(#SVGID_7_);}
</style>
<g id="paket">
	<polygon class="st0" points="28,473 384.95,473 459.38,415.37 102.43,415.37 	"/>
	<g>
		<linearGradient id="SVGID_1_" gradientUnits="userSpaceOnUse" x1="253.5611" y1="478.4142" x2="154.3397" y2="51.145">
			<stop  offset="0.0397" style="stop-color:#FEC8C9"/>
			<stop  offset="0.8635" style="stop-color:#FEACC9"/>
		</linearGradient>
		<rect x="46.99" y="135.98" class="st1" width="330.95" height="330.95"/>
	</g>
	<g>
		<path class="st2" d="M360.45,137.11c0,0-313.66-0.51-313.34-0.75l64.75-48.56c0.07-0.05,0.16-0.08,0.25-0.08h329.55
			c0.4,0,0.57,0.51,0.25,0.75l-64.75,48.56C377.1,137.09,377.01,137.11,360.45,137.11z"/>
	</g>
	<g>
		<path class="st3" d="M442.61,87.95l-65.48,49.11c-0.05,0.04-0.08,0.09-0.08,0.15v329.32c0,0.63,0.72,0.99,1.22,0.61l64.56-48.42
			c0.05-0.04,0.08-0.09,0.08-0.15V88.1C442.92,87.94,442.74,87.85,442.61,87.95z"/>
	</g>
</g>
<g id="snöre">
	<polygon class="st4" points="408.34,446.1 408.34,113.51 424.81,100.89 424.81,433.48 	"/>
	<linearGradient id="SVGID_2_" gradientUnits="userSpaceOnUse" x1="244.2702" y1="142.5249" x2="243.6328" y2="109.3826">
		<stop  offset="0.3747" style="stop-color:#A6EFA4"/>
		<stop  offset="0.5929" style="stop-color:#A1E0A1"/>
		<stop  offset="0.7709" style="stop-color:#9CD19D"/>
	</linearGradient>
	<polygon class="st5" points="195.94,137.11 270.04,87.72 291.44,87.72 232.17,137.11 	"/>
	<linearGradient id="SVGID_3_" gradientUnits="userSpaceOnUse" x1="75.7484" y1="107.4775" x2="424.8059" y2="107.4775">
		<stop  offset="0.0924" style="stop-color:#9CEAA4"/>
		<stop  offset="0.1082" style="stop-color:#9CE5A3"/>
		<stop  offset="0.1685" style="stop-color:#9CDA9F"/>
		<stop  offset="0.2533" style="stop-color:#9CD39E"/>
		<stop  offset="0.4888" style="stop-color:#9CD19D"/>
		<stop  offset="0.693" style="stop-color:#9CD39E"/>
		<stop  offset="0.7999" style="stop-color:#9CDBA0"/>
		<stop  offset="0.8842" style="stop-color:#9CE9A4"/>
		<stop  offset="0.8912" style="stop-color:#9CEAA4"/>
	</linearGradient>
	<polygon class="st6" points="408.35,114.06 75.75,114.06 93.85,100.89 424.81,100.89 	"/>
	<g id="rosett_1_">
		<linearGradient id="SVGID_4_" gradientUnits="userSpaceOnUse" x1="122.555" y1="47.3857" x2="247.2301" y2="90.9503">
			<stop  offset="0.2232" style="stop-color:#9CEAA4"/>
			<stop  offset="0.5174" style="stop-color:#9CE6A3"/>
			<stop  offset="0.8165" style="stop-color:#9CDA9F"/>
			<stop  offset="0.9608" style="stop-color:#9CD19D"/>
		</linearGradient>
		<path class="st7" d="M168.57,7.3c-12.99,2.6-11.85,29.62-17.77,35.54c-5.92,5.92-35.54,11.85-35.54,47.39
			c0,11.85,29.62,29.62,65.16,29.62s59.23-23.69,59.23-29.62C239.65,84.3,198.19,1.38,168.57,7.3z"/>
		<path class="st4" d="M233.73,78.38c-14.17-25.94-44.57-74.87-64.94-71.1C162.65,31,208.63,83.51,233.73,78.38z"/>
		<linearGradient id="SVGID_5_" gradientUnits="userSpaceOnUse" x1="371.3805" y1="51.6649" x2="268.2011" y2="103.8278">
			<stop  offset="0.2232" style="stop-color:#9CEAA4"/>
			<stop  offset="0.5897" style="stop-color:#9CE7A3"/>
			<stop  offset="0.8167" style="stop-color:#9CDFA1"/>
			<stop  offset="1" style="stop-color:#9CD19D"/>
		</linearGradient>
		<path class="st8" d="M346.27,13.23c11.48,2.96,8.22,51.09,12.03,57.55c3.81,6.46,22.85,38.74,8.61,51.49
			C352.67,135.01,251.5,108,251.51,81.54C251.52,76.24,284.68-2.67,346.27,13.23z"/>
		<path class="st4" d="M254.53,72.92c14.74-18.23,44.35-53.77,91.74-59.7C295.42,0.1,263.96,51.59,254.53,72.92z"/>
		<path class="st9" d="M265.49,56.31c10.65,5.19-0.27,24.42,5.46,25.92c5.73,1.5,14.19,15.96,12.69,21.69
			c-1.5,5.73-48.88,18.35-55.84-1.84S238.34,43.08,265.49,56.31z"/>
		<path class="st10" d="M221.88,66.54c-11.67,9.05,0,10.67,0,23.69s-5.23,24.55,3.08,28.52c14.69,7.02,58.91-42.61,42.32-42.32
			C241.74,76.89,229.16,60.9,221.88,66.54z"/>
		<path class="st11" d="M342.27,77.71c-0.37,0.14-0.32,0.66,0.07,0.66c5.99-0.06,6.43-0.42,18.89-2.43
			c-1.24-2.27-2.31-4.1-2.94-5.16c-0.81-1.38-1.3-4.74-1.68-9.09C352.19,66.54,358.97,71.61,342.27,77.71z"/>
		<path class="st11" d="M153.28,38.26c-0.7,1.96-1.48,3.58-2.47,4.58c-1.09,1.09-2.99,2.19-5.36,3.46
			c5.36,8.39,11.28,8.39,11.28,8.39C150.8,48.77,150.8,42.84,153.28,38.26z"/>
	</g>
	<linearGradient id="SVGID_6_" gradientUnits="userSpaceOnUse" x1="38.6073" y1="254.8806" x2="215.4731" y2="133.1461">
		<stop  offset="0.0209" style="stop-color:#9CEAA4"/>
		<stop  offset="0.6026" style="stop-color:#9CE8A3"/>
		<stop  offset="0.812" style="stop-color:#9CE1A2"/>
		<stop  offset="0.9609" style="stop-color:#9CD69E"/>
		<stop  offset="1" style="stop-color:#9CD19D"/>
	</linearGradient>
	<polygon class="st12" points="232.17,137.11 46.45,258.76 46.11,234.26 195.94,137.11 	"/>
</g>
<g id="ansikte_1_" class="st13">
	<g id="öga" class="st14">
		<circle class="st15" cx="145" cy="287" r="36"/>
		<circle class="st16" cx="145" cy="287" r="20"/>
		<circle class="st9" cx="145" cy="287" r="15.2"/>
		<circle cx="145" cy="286" r="12"/>
		<circle class="st15" cx="156.5" cy="283.5" r="4.5"/>
		<g>
			<path class="st3" d="M111.22,284.64l-9.22,3.24C102.02,266,121.42,248,145,248c23.59,0,43,18.02,43,39.91l-8.19-2.96
				C157.32,276.82,133.75,276.71,111.22,284.64z"/>
		</g>
		<g>
			<path class="st3" d="M175.66,293.92l8.34-2.76c-0.02,18.64-17.56,33.97-38.88,33.97c-21.33,0-38.88-15.35-38.88-33.99l7.4,2.52
				C133.98,300.58,155.29,300.67,175.66,293.92z"/>
		</g>
		<path d="M145,275c-8.92-0.32-44.4,3.93-66.45-1.85c-0.13-0.03-0.21,0.13-0.1,0.21c2.11,1.69,11.21,8.88,18.47,13.11
			c2.93,1.7,6.43,2.1,9.68,1.14c8.77-2.57,27.95-8.26,38.4-7.61c16,1,31,3,48,11c0,0,0.92-0.71-0.04-1.86C192,288,173,276,145,275z"
			/>
		<path d="M137.48,298.61C124.5,297.5,110.7,291.67,106,291c-6.32-0.9-10.2,4.72-11.63,7.29c-0.16,0.29,0.08,0.64,0.41,0.59
			c3.63-0.55,18.82-2.76,23.22-1.88c5,1,17,3,29,3s30-4,37-8l0-0.82c0,0-11.15,3.73-16.32,5.02
			C162.5,297.5,148.62,299.57,137.48,298.61z"/>
	</g>
	<g id="öga_1_" class="st14">
		<circle class="st15" cx="279.8" cy="287" r="36"/>
		<circle class="st16" cx="279.8" cy="287" r="20"/>
		<circle class="st9" cx="279.8" cy="287" r="15.2"/>
		<circle cx="279.8" cy="286" r="12"/>
		<circle class="st15" cx="292.3" cy="283.5" r="4.5"/>
		<g>
			<path class="st3" d="M313.58,284.64l9.22,3.24C322.78,266,303.37,248,279.8,248c-23.59,0-43,18.02-43,39.91l8.19-2.96
				C267.47,276.82,291.05,276.71,313.58,284.64z"/>
		</g>
		<g>
			<path class="st3" d="M249.13,293.92l-8.34-2.76c0.02,18.64,17.56,33.97,38.88,33.97c21.33,0,38.88-15.35,38.88-33.99l-7.4,2.52
				C290.82,300.58,269.5,300.67,249.13,293.92z"/>
		</g>
		<path d="M279.8,275c8.92-0.32,44.4,3.93,66.45-1.85c0.13-0.03,0.21,0.13,0.1,0.21c-2.11,1.69-11.21,8.88-18.47,13.11
			c-2.93,1.7-6.43,2.1-9.68,1.14c-8.77-2.57-27.95-8.26-38.4-7.61c-16,1-31,3-48,11c0,0-0.92-0.71,0.04-1.86
			C232.8,288,251.8,276,279.8,275z"/>
		<path d="M287.31,298.61c12.98-1.11,26.79-6.94,31.48-7.61c6.32-0.9,10.2,4.72,11.63,7.29c0.16,0.29-0.08,0.64-0.41,0.59
			c-3.63-0.55-18.82-2.76-23.22-1.88c-5,1-17,3-29,3s-30-4-37-8l0-0.82c0,0,11.15,3.73,16.32,5.02
			C262.3,297.5,276.17,299.57,287.31,298.61z"/>
	</g>
	<path class="st14" d="M236.83,227.57c-5.24-3.54-1.83-18.89,0.57-20.39c0,0-2.09,4.65-0.37,6.07c0,0,1.12-4.87,3.74-7.35
		c0,0-2.32,5.62-0.37,6.07c1.95,0.45,18.99-14.57,50.1-11.54c0,0-10.31,3.11-4.25,2.64s28.41-1.77,48.23,19.19
		c0,0-15.76-11.82-42.66-10.81C264.92,212.47,252.27,238.02,236.83,227.57z"/>
	<path class="st14" d="M186.35,253.89c6.62-0.14,9.2-11.6,2.96-16.7c0,0,0.75,2.87-0.24,3.74c0,0-3.25-7.72-7.93-8.03
		c0,0,2.62,2.99,1.69,2.93c-0.93-0.06-20.77-12.62-42.51-10.28s-42.95,25.36-42.95,25.36s26.27-14.25,47.83-13.78
		C166.76,237.59,164.73,254.36,186.35,253.89z"/>
	<g id="mun_4_" class="st14">
		<g>
			<path class="st17" d="M206,400c9.04,2.55,26.17,0.75,25.94-4.19L206,386.87c0,0-16.78-3.92-18.39-1.12
				C186.02,388.55,192.44,396.18,206,400z"/>
		</g>
		<g>
			<path class="st18" d="M210.08,383.95c3.01,0.85,6.4-1.22,10.92,0.05s6.97,5.27,9,7c1.88,1.61,5.42,5.49,5,7
				c-1.27,4.52-20.97-4.3-27-6s-24.84-1.68-25-5c-0.12-2.47,3.54-3.17,7-5c3.06-1.62,4.76-3.95,11-3S206.31,382.89,210.08,383.95z"
				/>
		</g>
	</g>
</g>
<g id="ansikte-glad" class="st13">
	<g id="öga_3_" class="st14">
		<circle class="st15" cx="145" cy="287" r="36"/>
		<circle class="st16" cx="145" cy="286" r="21"/>
		<circle class="st9" cx="145" cy="286" r="15.96"/>
		<circle cx="145" cy="284.95" r="12.6"/>
		<circle class="st15" cx="155.07" cy="278.33" r="6.93"/>
		<g>
			<path class="st3" d="M115,266l-8,3.98c0.02-14.8,17.39-26.98,38.5-26.98c21.12,0,38.5,12.19,38.5,27l-10-6
				C153.86,258.5,135,258,115,266z"/>
		</g>
		<path d="M145,252c-17,0-44.4,9.35-66.45,1.55c-0.13-0.05-0.21,0.18-0.1,0.29c2.11,2.28,11.21,11.98,18.47,17.69
			c2.93,2.3,6.43,2.83,9.68,1.54c8.77-3.47,23.4-11.63,38.4-11.63c20,0,29,6.75,46,17.55c0,0,3,0,1.96-3.86
			C192.45,273.25,173.02,252,145,252z"/>
		<path d="M145.76,319.05c-16.67-0.02-26.45-8.58-30.08-9.57c-4.89-1.33-12.54,4.96-13.75,8.35c-0.14,0.38,0.04,0.85,0.3,0.79
			c2.85-0.65,18.92-0.26,22.3,0.99c3.85,1.43,13.12,4.34,22.46,4.59s23.31-3.34,29.13-11.83l0.03-1.08c0,0-6.61,3.61-11.32,5.46
			C160.76,318.36,154.05,319.06,145.76,319.05z"/>
	</g>
	<g id="öga_2_" class="st14">
		<circle class="st15" cx="280.58" cy="287" r="36"/>
		<circle class="st16" cx="280.58" cy="286" r="21"/>
		<circle class="st9" cx="280.58" cy="286" r="15.96"/>
		<circle cx="280.58" cy="284.95" r="12.6"/>
		<circle class="st15" cx="291.5" cy="278.33" r="6.93"/>
		<g>
			<path class="st3" d="M310.58,266l8,3.98c-0.02-14.8-17.39-26.98-38.5-26.98c-21.12,0-38.5,12.19-38.5,27l10-6
				C271.72,258.5,290.58,258,310.58,266z"/>
		</g>
		<path d="M280.58,252c17,0,44.4,9.35,66.45,1.55c0.13-0.05,0.21,0.18,0.1,0.29c-2.11,2.28-11.21,11.98-18.47,17.69
			c-2.93,2.3-6.43,2.83-9.68,1.54c-8.77-3.47-23.4-11.63-38.4-11.63c-20,0-29,6.75-46,17.55c0,0-3,0-1.96-3.86
			C233.13,273.25,252.56,252,280.58,252z"/>
		<path d="M279.82,319.05c16.67-0.02,26.45-8.58,30.08-9.57c4.89-1.33,12.54,4.96,13.75,8.35c0.14,0.38-0.04,0.85-0.3,0.79
			c-2.85-0.65-18.92-0.26-22.3,0.99c-3.85,1.43-13.12,4.34-22.46,4.59s-23.31-3.34-29.13-11.83l-0.03-1.08c0,0,6.61,3.61,11.32,5.46
			C264.82,318.36,271.53,319.06,279.82,319.05z"/>
	</g>
	<path class="st14" d="M239.4,228.55c-5-3.87-0.62-18.96,1.86-20.31c0,0-2.38,4.51-0.75,6.04c0,0,1.42-4.79,4.2-7.1
		c0,0-2.67,5.47-0.75,6.04c1.92,0.57,19.88-13.34,50.73-8.34c0,0-10.49,2.45-4.41,2.37c6.08-0.09,28.46,0.04,46.91,22.21
		c0,0-14.98-12.8-41.89-13.49S254.14,239.95,239.4,228.55z"/>
	<path class="st14" d="M179.66,228.09c6.98-1.07,8.13-13.54,0.83-18.07c0,0,1.19,2.93,0.26,3.99c0,0-4.51-7.72-9.49-7.39
		c0,0,3.18,2.8,2.19,2.86c-1,0.06-23.7-10.47-46.37-4.99c-22.67,5.48-41.91,32.76-41.91,32.76s25.81-18.7,48.67-21.18
		C156.7,213.57,156.87,231.57,179.66,228.09z"/>
	<g id="mun_6_" class="st14">
		<path class="st15" d="M214,401c-20,0-28-10-31-17l59-1C242,383,235,401,214,401z"/>
		<path d="M213,389c15,0,22.06-0.87,28-3c0,0-2,10-22,10c-13,0-25-1-25-1l-10-8C184,387,195,389,213,389z"/>
		<g>
			<linearGradient id="SVGID_7_" gradientUnits="userSpaceOnUse" x1="194" y1="395" x2="232" y2="395">
				<stop  offset="0.0397" style="stop-color:#FEC8C9"/>
				<stop  offset="0.8635" style="stop-color:#FEACC9"/>
			</linearGradient>
			<path class="st19" d="M214,394c2,0,5-1,9-1s9,1,9,1l-4,3c0,0-6,0-13,0s-16,0-18-1s-3-2-3-2s6-1,11-1S212,394,214,394z"/>
		</g>
		<g>
			<path class="st17" d="M214,400c13,0,25-12,27-17c0,0,0,0,1,0s0,4-1,7c-1.14,3.42-6,19-27,19c-20,0-27-15-29-19c-1-2-4-7-3-7
				s2,1,2,1S195,400,214,400z"/>
		</g>
		<path class="st18" d="M213,378c4,0,5-3,12-3s9.09,2.27,12,3c4,1,8.74-1.53,10,1c1,2-1,4-4,5c-2.85,0.95-25,1-30,1
			s-28.15,0.95-31,0c-3-1-5.24-3.14-4-5c2-3,7,0,10-1c2.12-0.71,7-4,13-4S210,378,213,378z"/>
	</g>
</g>
<g id="ansikte-ledsen">
	<g id="öga_4_">
		<circle class="st15" cx="279.8" cy="287" r="36"/>
		<circle class="st16" cx="274.8" cy="306" r="15.2"/>
		<circle class="st9" cx="274.8" cy="307" r="11.56"/>
		<circle cx="274.8" cy="308.24" r="9.12"/>
		<circle class="st15" cx="284.3" cy="305.34" r="3.42"/>
		<g>
			<path class="st3" d="M314,290l8.8-2.12C322.78,266,303.37,248,279.8,248c-23.59,0-43,18.02-43,39.91L245,290
				C266.02,295.05,289,299,314,290z"/>
		</g>
		<path d="M279.8,300.14c8.92,0.32,44.4-3.93,66.45,1.85c0.13,0.03,0.21-0.13,0.1-0.21c-2.11-1.69-11.21-8.88-18.47-13.11
			c-2.93-1.7-3.63-2.62-6.88-1.68c-8.71,2.52-30,7-41,7c-16.03,0-31.2-1.86-48.2-9.86c0,0-0.92,0.71,0.04,1.86
			C232.8,287.14,251.8,299.14,279.8,300.14z"/>
		<path d="M284.68,323.07c9.12-0.75,18.82-4.65,22.12-5.1c4.44-0.61,7.16,3.16,8.17,4.89c0.11,0.2-0.06,0.43-0.29,0.39
			c-2.55-0.37-13.22-1.85-16.31-1.26c-3.51,0.67-7.42,3.01-20.02,3.01c-11.45,0-21.43-3.68-26.35-6.36l0-0.55
			c0,0,7.83,2.5,11.47,3.37C267.1,322.32,276.85,323.71,284.68,323.07z"/>
	</g>
	<g id="öga_6_">
		<circle class="st15" cx="144" cy="287" r="36"/>
		<circle class="st16" cx="138" cy="306" r="15.2"/>
		<circle class="st9" cx="138" cy="307" r="11.56"/>
		<circle cx="138" cy="308.24" r="9.12"/>
		<circle class="st15" cx="146.5" cy="305.34" r="3.42"/>
		<g>
			<path class="st3" d="M109.8,290l-8.8-2.12C101.02,266,120.42,248,144,248c23.59,0,43,18.02,43,39.91l-8.2,2.09
				C157.78,295.05,134.8,299,109.8,290z"/>
		</g>
		<path d="M144,300.14c-8.92,0.32-44.4-3.93-66.45,1.85c-0.13,0.03-0.21-0.13-0.1-0.21c2.11-1.69,11.21-8.88,18.47-13.11
			c2.93-1.7,3.63-2.62,6.88-1.68c8.71,2.52,30,7,41,7c16.03,0,31.2-1.86,48.2-9.86c0,0,0.92,0.71-0.04,1.86S172,299.14,144,300.14z"
			/>
		<path d="M139.12,323.07c-9.12-0.75-18.82-4.65-22.12-5.1c-4.44-0.61-7.16,3.16-8.17,4.89c-0.11,0.2,0.06,0.43,0.29,0.39
			c2.55-0.37,13.22-1.85,16.31-1.26c3.51,0.67,7.42,3.01,20.02,3.01c11.45,0,21.43-3.68,26.35-6.36l0-0.55c0,0-7.83,2.5-11.47,3.37
			C156.69,322.32,146.94,323.71,139.12,323.07z"/>
	</g>
	<g id="mun_5_">
		<g>
			<path class="st17" d="M208.16,408.53c9.38,0.43,23.18-4.77,21.84-9.53l-24.81-3.26c0,0-17.24-0.01-18.16,3.08
				C186.1,401.91,194.09,407.88,208.16,408.53z"/>
		</g>
		<g>
			<path class="st18" d="M208.5,391.98c3.13,0.14,5.96-2.64,10.65-2.43c4.69,0.22,8.66,4.07,9.85,6.45c1,2,2,3,4,6
				c2.48,3.72-15-3-24-3c-10,0-27,7-25,3c1.11-2.21,2-4,4.5-7.37c2.06-2.78,3.73-5.21,10.03-5.42C205,389,204.59,391.8,208.5,391.98
				z"/>
		</g>
	</g>
	<path d="M262.03,230.05c-2.68-4.27,4.75-14.35,6.98-14.68c0,0-3.02,2.72-2.22,4.31c0,0,2.38-3.19,5.09-4.15c0,0-3.5,3.35-2.22,4.31
		s18.53-4.51,40.23,7.71c0,0-8.52-1.05-3.94,0.56c4.57,1.61,21.27,7.86,28.97,29.51c0,0-7.68-13.69-27.62-21.61
		C287.36,228.08,269.92,242.62,262.03,230.05z"/>
	<path d="M156.77,230.07c4.96-2.12,3.44-11.56-2.82-13.53c0,0,1.44,1.94,0.95,2.9c0,0-4.8-4.85-8.43-3.67c0,0,2.89,1.46,2.16,1.7
		c-0.73,0.24-19.53-3.25-35.26,5.11s-24.79,32.2-24.79,32.2s15.55-18.74,31.99-24.92S140.56,236.98,156.77,230.07z"/>
</g>
</svg>
