<?xml version="1.0" encoding="utf-8"?>
<!-- Generator: Adobe Illustrator 24.0.2, SVG Export Plug-In . SVG Version: 6.00 Build 0)  -->
<svg version="1.1" xmlns="http://www.w3.org/2000/svg" xmlns:xlink="http://www.w3.org/1999/xlink" x="0px" y="0px"
	 viewBox="0 0 480 480" style="enable-background:new 0 0 480 480;" xml:space="preserve">
<style type="text/css">
	.st0{opacity:0.25;fill:#4C4C4C;}
	.st1{fill:url(#SVGID_1_);}
	.st2{fill:#FEC8C9;}
	.st3{fill:#FEACC9;}
	.st4{fill:#9CD19D;}
	.st5{fill:url(#SVGID_2_);}
	.st6{fill:url(#SVGID_3_);}
	.st7{fill:url(#SVGID_4_);}
	.st8{fill:url(#SVGID_5_);}
	.st9{fill:#9CEAA4;}
	.st10{fill:#A6EFA4;}
	.st11{fill:#9CE2A4;}
	.st12{fill:url(#SVGID_6_);}
	.st13{fill:#FE82BA;}
	.st14{fill:#FFFFFF;}
	.st15{fill:#FE82BA;stroke:#000000;stroke-width:1.5;stroke-miterlimit:10;}
	.st16{display:none;}
	.st17{display:inline;}
</style>
<g id="Lager_1">
</g>
<g id="paket">
	<polygon class="st0" points="28,473 384.95,473 459.38,415.37 102.43,415.37 	"/>
	<g>
		<linearGradient id="SVGID_1_" gradientUnits="userSpaceOnUse" x1="253.5027" y1="478.7281" x2="154.2813" y2="51.4589">
			<stop  offset="0.0397" style="stop-color:#FEC8C9"/>
			<stop  offset="0.8635" style="stop-color:#FEACC9"/>
		</linearGradient>
		<rect x="46.93" y="136.29" class="st1" width="330.95" height="330.95"/>
	</g>
	<g>
		<path class="st2" d="M360.45,137.11c0,0-313.66-0.51-313.34-0.75l64.75-48.56c0.07-0.05,0.16-0.08,0.25-0.08h329.55
			c0.4,0,0.57,0.51,0.25,0.75l-64.75,48.56C377.1,137.09,377.01,137.11,360.45,137.11z"/>
	</g>
	<g>
		<path class="st3" d="M442.61,87.95l-65.48,49.11c-0.05,0.04-0.08,0.09-0.08,0.15v329.32c0,0.63,0.72,0.99,1.22,0.61l64.56-48.42
			c0.05-0.04,0.08-0.09,0.08-0.15V88.1C442.92,87.94,442.74,87.85,442.61,87.95z"/>
	</g>
</g>
<g id="snöre">
	<polygon class="st4" points="408.34,446.1 408.34,113.51 424.81,100.89 424.81,433.48 	"/>
	<linearGradient id="SVGID_2_" gradientUnits="userSpaceOnUse" x1="244.2702" y1="142.5249" x2="243.6328" y2="109.3826">
		<stop  offset="0.3747" style="stop-color:#A6EFA4"/>
		<stop  offset="0.5929" style="stop-color:#A1E0A1"/>
		<stop  offset="0.7709" style="stop-color:#9CD19D"/>
	</linearGradient>
	<polygon class="st5" points="195.94,137.11 270.04,87.72 291.44,87.72 232.17,137.11 	"/>
	<linearGradient id="SVGID_3_" gradientUnits="userSpaceOnUse" x1="75.7484" y1="107.4775" x2="424.8059" y2="107.4775">
		<stop  offset="0.0924" style="stop-color:#9CEAA4"/>
		<stop  offset="0.1082" style="stop-color:#9CE5A3"/>
		<stop  offset="0.1685" style="stop-color:#9CDA9F"/>
		<stop  offset="0.2533" style="stop-color:#9CD39E"/>
		<stop  offset="0.4888" style="stop-color:#9CD19D"/>
		<stop  offset="0.693" style="stop-color:#9CD39E"/>
		<stop  offset="0.7999" style="stop-color:#9CDBA0"/>
		<stop  offset="0.8842" style="stop-color:#9CE9A4"/>
		<stop  offset="0.8912" style="stop-color:#9CEAA4"/>
	</linearGradient>
	<polygon class="st6" points="408.35,114.06 75.75,114.06 93.85,100.89 424.81,100.89 	"/>
	<g id="rosett_1_">
		<linearGradient id="SVGID_4_" gradientUnits="userSpaceOnUse" x1="122.555" y1="47.3857" x2="247.2301" y2="90.9503">
			<stop  offset="0.2232" style="stop-color:#9CEAA4"/>
			<stop  offset="0.5174" style="stop-color:#9CE6A3"/>
			<stop  offset="0.8165" style="stop-color:#9CDA9F"/>
			<stop  offset="0.9608" style="stop-color:#9CD19D"/>
		</linearGradient>
		<path class="st7" d="M168.57,7.3c-12.99,2.6-11.85,29.62-17.77,35.54c-5.92,5.92-35.54,11.85-35.54,47.39
			c0,11.85,29.62,29.62,65.16,29.62s59.23-23.69,59.23-29.62C239.65,84.3,198.19,1.38,168.57,7.3z"/>
		<path class="st4" d="M233.73,78.38c-14.17-25.94-44.57-74.87-64.94-71.1C162.65,31,208.63,83.51,233.73,78.38z"/>
		<linearGradient id="SVGID_5_" gradientUnits="userSpaceOnUse" x1="371.3805" y1="51.6649" x2="268.2011" y2="103.8278">
			<stop  offset="0.2232" style="stop-color:#9CEAA4"/>
			<stop  offset="0.5897" style="stop-color:#9CE7A3"/>
			<stop  offset="0.8167" style="stop-color:#9CDFA1"/>
			<stop  offset="1" style="stop-color:#9CD19D"/>
		</linearGradient>
		<path class="st8" d="M346.27,13.23c11.48,2.96,8.22,51.09,12.03,57.55c3.81,6.46,22.85,38.74,8.61,51.49
			C352.67,135.01,251.5,108,251.51,81.54C251.52,76.24,284.68-2.67,346.27,13.23z"/>
		<path class="st4" d="M254.53,72.92c14.74-18.23,44.35-53.77,91.74-59.7C295.42,0.1,263.96,51.59,254.53,72.92z"/>
		<path class="st9" d="M265.49,56.31c10.65,5.19-0.27,24.42,5.46,25.92c5.73,1.5,14.19,15.96,12.69,21.69
			c-1.5,5.73-48.88,18.35-55.84-1.84S238.34,43.08,265.49,56.31z"/>
		<path class="st10" d="M221.88,66.54c-11.67,9.05,0,10.67,0,23.69s-5.23,24.55,3.08,28.52c14.69,7.02,58.91-42.61,42.32-42.32
			C241.74,76.89,229.16,60.9,221.88,66.54z"/>
		<path class="st11" d="M342.27,77.71c-0.37,0.14-0.32,0.66,0.07,0.66c5.99-0.06,6.43-0.42,18.89-2.43
			c-1.24-2.27-2.31-4.1-2.94-5.16c-0.81-1.38-1.3-4.74-1.68-9.09C352.19,66.54,358.97,71.61,342.27,77.71z"/>
		<path class="st11" d="M153.28,38.26c-0.7,1.96-1.48,3.58-2.47,4.58c-1.09,1.09-2.99,2.19-5.36,3.46
			c5.36,8.39,11.28,8.39,11.28,8.39C150.8,48.77,150.8,42.84,153.28,38.26z"/>
	</g>
	<linearGradient id="SVGID_6_" gradientUnits="userSpaceOnUse" x1="38.6073" y1="254.8806" x2="215.4731" y2="133.1461">
		<stop  offset="0.0209" style="stop-color:#9CEAA4"/>
		<stop  offset="0.6026" style="stop-color:#9CE8A3"/>
		<stop  offset="0.812" style="stop-color:#9CE1A2"/>
		<stop  offset="0.9609" style="stop-color:#9CD69E"/>
		<stop  offset="1" style="stop-color:#9CD19D"/>
	</linearGradient>
	<polygon class="st12" points="232.17,137.11 46.45,258.76 46.11,234.26 195.94,137.11 	"/>
</g>
<g id="ansikte">
	<path d="M165.93,222.4c0,0-14.3-7.15-26.82,1.79c-12.51,8.94-19.66,19.66-23.24,25.03c-3.58,5.36-7.15,10.73-10.73,17.88
		c-3.58,7.15-10.73,21.45-7.15,32.18c3.58,10.73,10.73,19.66,21.45,21.45s30.39,1.79,44.69-5.36c14.3-7.15,24.13-16.98,29.5-25.92
		c5.36-8.94,3.58-28.6-3.58-37.54c-7.15-8.94-14.3-10.73-17.88-16.09C168.62,230.45,170.4,226.87,165.93,222.4z"/>
	<path class="st13" d="M188.28,262.63c2.26,1.13-21.45-35.75-42.91-33.97c0,0-12.51,0-16.09,14.3c0,0,19.66-3.58,33.97,3.58
		C177.55,253.69,184.7,260.84,188.28,262.63z"/>
	<path class="st14" d="M152.53,246.54c-6.96-1.64-32.18,0-41.12,17.88s-8.94,26.82-8.94,30.39c0,0,21.45,7.15,35.75,7.15
		s37.54-1.79,39.33-1.79c0,0,7.15-16.09,14.3-21.45C191.86,278.71,182.92,253.69,152.53,246.54z"/>
	<g>
		<path class="st3" d="M102.47,298.38c0,0,21.45,7.15,28.6,7.15c7.15,0,32.18,1.79,37.54,0c0,0-12.51,14.3-41.12,10.73
			S102.47,298.38,102.47,298.38z"/>
	</g>
	<circle cx="134.65" cy="262.63" r="18.77"/>
	<circle class="st14" cx="131.18" cy="254.79" r="5.36"/>
	<path d="M234.76,287.65c0,0,5.36-1.79,8.94-7.15c3.58-5.36,16.09-17.88,37.54-14.3c21.45,3.58,28.6,10.73,33.97,16.09
		c5.36,5.36,8.94,32.18,3.58,46.48s-14.3,30.39-44.69,25.03c0,0-10.73-10.73-16.09-14.3C252.64,335.92,229.4,309.11,234.76,287.65z"
		/>
	<path class="st13" d="M263.36,275.14c0,0,10.73-10.73,33.97-1.79c23.24,8.94,19.66,30.39,19.66,30.39s-10.73-12.51-25.03-19.66
		C277.67,276.93,263.36,275.14,263.36,275.14z"/>
	<path class="st14" d="M240.12,289.44c-1.48,3.71-1.79,17.88,12.51,28.6s42.91,21.45,58.99,19.66c0,0,12.51-19.66,5.36-30.39
		c-7.15-10.73-39.33-32.18-66.15-26.82C250.85,280.5,243.7,280.5,240.12,289.44z"/>
	<g>
		<path class="st3" d="M247.27,318.04c0,0,19.66,16.09,35.75,19.66s23.24,3.58,23.24,3.58s-8.94,10.73-23.24,8.94
			S250.85,326.98,247.27,318.04z"/>
	</g>
	<circle cx="258" cy="294.8" r="18.77"/>
	<circle class="st14" cx="253.32" cy="286.97" r="5.36"/>
	<path id="mun" class="st15" d="M189.98,398.04c0,0,2.68-2.68,8.04-0.89c5.36,1.79,5.36,3.58,8.04,6.26
		c4.47-0.89,6.26-2.68,9.83-0.89s4.47,4.47,6.26,8.04c0,0-11.62,6.26-20.56,2.68C192.66,409.66,189.98,399.83,189.98,398.04z"/>
	<g id="ögonbryn">
		<path d="M299.12,241.17c-3.58,1.79-12.51,1.79-10.73-8.94c0,0,0,3.58,1.79,3.58c0,0,0-5.36,3.58-7.15c0,0-1.79,1.79,0,3.58
			c0,0,12.51-7.15,23.24-7.15s28.6,10.73,26.82,12.51c-1.79,1.79-14.3-10.73-25.03-7.15C308.06,234.02,302.69,239.38,299.12,241.17z
			"/>
		<path d="M213.31,251.9c7.33,0.81,10.73-12.51,10.73-14.3c0,0-1.79,3.58-3.58,3.58c-1.79,0-3.58-21.45-10.73-30.39
			c0,0,1.79,3.58,0,5.36c0,0-16.09-30.39-46.48-26.82c0,0,28.6,7.15,32.18,17.88C199.01,217.93,197.22,250.11,213.31,251.9z"/>
	</g>
	<g id="fransar">
		<path d="M269.62,277.82c0,0,10.73,0,14.3-3.58c0,0-3.58,3.58-8.94,5.36c-5.36,1.79,17.88,1.79,19.66-5.36c0,0-1.62,8.09-9.47,8.88
			c-0.09,0.01-0.1,0.13-0.01,0.14c3.9,0.12,16.16-0.36,25.06-10.23c0.06-0.06,0.16-0.01,0.11,0.06
			c-1.98,3.17-10.94,17.04-15.7,15.45c0,0,27.32-5.64,32.26-13.63c0.05-0.07-2.88,5.01-2.91,5.09c-1.5,3.67-9.94,13.91-20.41,13.91
			c0,0,29.24-4,38.18-14.73c0,0-20.3,21.88-31.03,20.09c0,0,26.64-2.28,40.92-14.02c0.07-0.06-4.6,4.68-4.66,4.75
			c-3.29,3.46-18.16,16.4-29.08,16.42c-0.02,0-0.03,0-0.04-0.01c-0.35-0.35-9-8.96-12.5-10.72c-3.58-1.79-10.73-7.15-14.3-8.94
			c-3.57-1.78-14.26-5.35-14.3-5.36c0,0,0,0,0,0l-7.15-1.79V277.82z"/>
		<path d="M180.24,258.16c0,0-3.58-5.36-1.79-8.94c0,0-1.79,3.58-1.79,7.15c0,0-5.36-5.36-1.79-16.09c0,0-5.36,5.36-3.58,12.51
			c0,0-7.15-14.3-3.58-23.24c0,0-5.36,10.73-1.79,19.66c0,0-10.73-8.94-7.15-28.6c0,0-5.36,14.3-1.79,25.03
			c0,0-12.51-14.3-7.15-32.18c0,0-8.94,16.09-1.79,30.39c0,0-16.09-19.66-10.73-37.54c0,0-8.94,21.45,0,37.54
			c0,0-17.88-19.66-14.3-39.33c0,0-7.15,25.03,1.79,41.12c0,0-16.09-14.3-16.09-33.97c0,0-7.15,32.18,7.15,41.12l14.3-7.15
			c0,0,19.66-1.79,25.03,0c5.36,1.79,23.24,10.73,26.82,16.09L180.24,258.16z"/>
		<path d="M99.79,295.7c0,0-8.94-1.79-12.51,10.73c0,0,5.36-8.94,16.09-8.04c0,0-10.73-0.89-8.94,13.41c0,0,5.36-14.3,16.09-10.73
			c0,0-8.94,0-8.94,12.51c0,0,10.73-14.3,19.66-10.73L99.79,295.7z"/>
		<path d="M308.95,340.39c0,0,7.15,0,5.36,10.73c0,0,0-8.94-12.51-10.73c0,0,8.94,1.79,5.36,12.51c0,0,1.79-8.94-14.3-14.3
			c0,0,12.51,1.79,7.15,16.09c0,0,3.58-8.94-16.09-17.88l14.3,1.79L308.95,340.39z"/>
	</g>
	<path d="M211.06,408.95c0,0-9.33,0.25-12.1-3.77C198.96,405.18,203.03,407.8,211.06,408.95z"/>
</g>
<g id="ansikte-vinst" class="st16">
	<g id="mun_2_" class="st17">
		<path d="M183.79,393.42c0,0,18.24,6.5,27.21,7.71c8.92,1.2,26.03,1.5,26.03,1.5s-9.35,16.9-29.03,13.23
			S183.79,393.42,183.79,393.42z"/>
		<g>
			<path class="st3" d="M209.8,410.05c2.97,0.4,6.08-0.19,9.05,0.21c2.97,0.4,8.79,2.2,8.79,2.2l-8.73,4.88l-14.01-0.88l-8.52-4.18
				l-3.56-3.51c0,0,6.21-1.18,10.18-0.64S207.82,409.78,209.8,410.05z"/>
		</g>
		<path class="st14" d="M208.99,416c4.95,0.67,15.4-1.96,14.41-2.09c-1.98-0.27-8.06-0.08-13.02-0.75c-4.96-0.67-14.73-3-13.87-1.87
			C197.37,412.41,208.99,416,208.99,416z"/>
		<path class="st14" d="M209.34,405.95c9.91,1.34,23.19,0.11,26.57-2.47l0.27-1.98L210.01,401l-25.23-7.44l-0.27,1.98
			C184.51,395.53,196.46,404.21,209.34,405.95z"/>
		<g>
			<path class="st13" d="M213.51,424.73c-1.74,0-3.62-0.19-5.59-0.55c-18.73-3.49-20.71-14.9-21.78-21.02
				c-0.2-1.16-0.36-2.07-0.6-2.77c-1.75-5.12-1.53-6.56-1.24-6.96c0.04-0.05,0.09-0.13,0.33-0.13c0,0,0,0,0.01,0
				c0.11,0.28,0.23,0.93,0.33,1.47c0.29,1.61,0.74,4.05,2.18,6.63c2.33,4.17,11.41,12.95,21.87,14.36c1.28,0.17,2.62,0.26,3.96,0.26
				c8.93,0,17.13-3.82,19.89-7.52c0.95-1.28,1.76-2.54,2.4-3.55c0.67-1.05,1.5-2.35,1.87-2.55c0,0,0.28,0.03,0.35,0.04
				c-0.06,0.35-0.45,1.44-2.72,4.58c-0.81,1.12-1.59,2.54-2.42,4.05C229,417.15,224.82,424.73,213.51,424.73
				C213.52,424.73,213.52,424.73,213.51,424.73z"/>
			<g>
				<path d="M186.73,402.15c3.15,5.19,12.56,13.04,22.2,14.34c1.32,0.18,2.68,0.27,4.06,0.27c7.65,0,14.8-2.77,18.63-5.92
					c-3.24,5.89-7.32,13.14-18.1,13.14c-1.69,0-3.53-0.18-5.45-0.54c-18.21-3.39-20.14-14.47-21.18-20.42
					C186.83,402.72,186.78,402.43,186.73,402.15 M184.64,392.54c-2.17,0-1.19,4.01,0.2,8.08c1.45,4.23,0.26,20.06,22.95,24.29
					c2.08,0.39,3.98,0.57,5.72,0.57c14.73,0,17.98-12.69,21.86-18.03c4.28-5.89,2.79-5.68,1.79-5.81c-0.02,0-0.04,0-0.06,0
					c-0.99,0-2.35,3.08-4.84,6.41c-2.68,3.59-10.71,7.22-19.28,7.22c-1.28,0-2.57-0.08-3.86-0.25c-9.91-1.34-18.88-9.61-21.32-13.98
					c-2.44-4.37-1.9-8.33-2.89-8.46C184.82,392.55,184.73,392.54,184.64,392.54L184.64,392.54z"/>
			</g>
		</g>
		<g>
			<path class="st13" d="M235.89,402.9c-4.84,0-21.56-1.07-25.91-1.66c-4.76-0.64-23.69-5.95-25.9-7.46
				c-1.02-0.69-1.45-1.73-1.5-2.42c-0.03-0.4,0.06-0.58,0.09-0.6c0.02-0.02,0.16-0.1,0.6-0.1c0.84,0,2.11,0.31,3.44,0.63
				c1.11,0.27,2.26,0.55,3.33,0.69c0.46,0.06,1,0.09,1.65,0.09c1.23,0,2.67-0.11,4.19-0.22c1.65-0.12,3.36-0.25,4.92-0.25
				c0.93,0,1.71,0.04,2.38,0.13c2.5,0.34,4.51,1.48,5.85,2.23c0.81,0.46,1.34,0.76,1.81,0.82c0.07,0.01,0.15,0.01,0.23,0.01
				c0.44,0,0.98-0.14,1.73-0.33c1.18-0.3,2.8-0.7,4.65-0.7c0.54,0,1.07,0.04,1.58,0.1c2.89,0.39,5.66,1.9,8.09,3.23
				c0.77,0.42,1.5,0.81,2.18,1.15c2.53,1.24,6.53,2.55,8.99,2.55c0.54,0,0.99-0.06,1.36-0.19c0.12-0.04,0.2-0.05,0.23-0.05
				c0,0,0.03,0.25-0.19,0.66c-0.18,0.33-0.91,1.41-2.88,1.63C236.63,402.9,236.32,402.9,235.89,402.9z"/>
			<g>
				<path d="M183.34,391.42c0.76,0.02,2,0.32,3.2,0.61c1.13,0.27,2.3,0.56,3.4,0.71c0.49,0.07,1.06,0.1,1.75,0.1
					c1.25,0,2.71-0.11,4.25-0.22c1.64-0.12,3.33-0.25,4.87-0.25c0.9,0,1.64,0.04,2.28,0.13c2.36,0.32,4.22,1.37,5.58,2.14
					c0.88,0.5,1.47,0.83,2.08,0.91c0.1,0.01,0.21,0.02,0.33,0.02c0.53,0,1.11-0.15,1.92-0.35c1.14-0.29,2.71-0.68,4.46-0.68
					c0.5,0,1,0.03,1.48,0.1c2.75,0.37,5.45,1.84,7.84,3.14c0.77,0.42,1.5,0.82,2.2,1.16c2.6,1.28,6.75,2.63,9.32,2.63
					c0.03,0,0.06,0,0.09,0c-0.37,0.25-0.9,0.47-1.65,0.56c-0.06,0.01-0.27,0.02-0.84,0.02c-4.82,0-21.47-1.07-25.81-1.65
					c-5.18-0.7-23.59-5.98-25.58-7.33C183.73,392.64,183.41,391.87,183.34,391.42 M183.26,389.92c-0.45,0-0.81,0.07-1.05,0.26
					c-0.8,0.61-0.4,2.97,1.45,4.23c2.34,1.59,21.27,6.91,26.22,7.58c4.51,0.61,21.34,1.67,26.01,1.67c0.46,0,0.81-0.01,1.01-0.03
					c3.76-0.42,4.52-3.78,2.99-3.78c-0.14,0-0.3,0.03-0.47,0.09c-0.3,0.1-0.68,0.15-1.12,0.15c-2.32,0-6.27-1.31-8.66-2.48
					c-2.84-1.39-6.54-3.91-10.5-4.45c-0.58-0.08-1.14-0.11-1.68-0.11c-3.03,0-5.43,1.03-6.38,1.03c-0.05,0-0.09,0-0.13-0.01
					c-0.99-0.13-3.7-2.52-7.66-3.05c-0.76-0.1-1.6-0.14-2.48-0.14c-3.04,0-6.6,0.47-9.12,0.47c-0.58,0-1.1-0.02-1.55-0.09
					C187.8,390.93,184.93,389.92,183.26,389.92L183.26,389.92z"/>
			</g>
		</g>
	</g>
	<g id="h.öga" class="st17">
		<path d="M278.59,234.08c0,0,19.42,1.14,28.69,12.09c9.26,10.95,12.84,19.27,14.85,24.93c2,5.67,1.96,12.86,3.55,20.15
			c1.59,7.28,5.83,17.14,0.14,26.02s-11.69,13.66-21.55,16.67c-9.7,2.96-46.36-1.99-57.65-11.73c-11.29-9.74-17.71-22.52-18.62-32.2
			c-0.87-9.31,5.94-31.64,12.75-39.53c6.98-8.08,12.03-13.31,18.38-15.55C265.35,232.73,273.61,234.75,278.59,234.08z"/>
		<g>
			<path class="st13" d="M240.27,259.97c11.63-26.88,30.14-27.12,49.12-20.59c0,0,11.31,2.87,11.27,16.62c0,0-16.96-7.74-31.53-4.56
				C254.56,254.63,238.79,263.39,240.27,259.97z"/>
		</g>
		<path class="st14" d="M283.71,255.59c16.06,2.75,26.18,11.84,34.75,29.82c6.41,13.43,6.76,18.84,4.65,23.47
			c0,0-6.94,12.87-33.07,12.78c-15.38-0.05-39.32-11.9-50.16-18.49c0,0-5.89-15.18-2.66-23.66
			C237.23,279.52,248.67,249.59,283.71,255.59z"/>
		<g>
			<path class="st3" d="M313.57,323.79c0,0-20.15,3.55-34.61-0.12c-11.75-2.98-23.29-5.62-34.11-13.46c0,0-3.21,12.66,29.8,19.1
				C299.36,334.14,313.57,323.79,313.57,323.79z"/>
		</g>
		<circle cx="279.01" cy="278.93" r="27.23"/>
		<circle class="st14" cx="263.21" cy="280.19" r="5"/>
		<path d="M252.47,256.48c0,0,4.46-4.03,3.67-7.67c0,0,0.8,3.64-0.02,6.87c0,0,6.08-3.62,5.31-14.14c0,0,3.62,6.08,0.36,12.13
			c0,0,9.74-11.29,8.56-20.19c0,0,2.39,10.93-2.89,18.19c0,0,11.75-5.62,13.02-24.22c0,0,1.57,14.16-4.12,23.04
			c0,0,14.59-10.06,13.84-27.45c0,0,4.39,16.6-5.35,27.89c0,0,19.06-14.09,18.31-31.48c0,0,3.16,21.44-8.61,33.94
			c0,0,20.67-13.68,21.95-32.28c0,0,0.73,24.27-11.04,36.76c0,0,17.83-9.24,22.33-27.02c0,0-0.91,30.73-15.89,35.53l-11.29-9.74
			c0,0-17.37-6.13-22.63-5.74s-23.47,4.37-27.93,8.4L252.47,256.48z"/>
		<path d="M323.76,317.9c0,0,8.48-0.65,10.39,11.33c0,0-3.96-8.88-14-9.25c0,0,10.03,0.37,6.77,13.42c0,0-3.36-13.84-13.7-11.74
			c0,0,8.28,1,6.87,12.59c0,0-8.33-14.45-17.01-12.14L323.76,317.9z"/>
		<circle class="st14" cx="284.45" cy="275.61" r="11.79"/>
		<circle class="st14" cx="271.57" cy="289.8" r="3.43"/>
	</g>
	<g id="v.öga" class="st17">
		<path d="M167,219c0,0-20.49-3.94-33,5s-18.42,16.64-22,22s-5.42,12.85-9,20s-10.58,16.27-7,27s8.55,17.27,18,23
			c9.3,5.63,48.7,10.15,63,3s28.85-20.64,30-31c1-9,0-32-5-42c-5.12-10.24-9-17-15-21C181.12,221.08,172,221,167,219z"/>
		<g>
			<path class="st13" d="M200,256c-5-31-24.17-36.13-45.63-34.34c0,0-12.51,0-16.09,14.3c0,0,19.66-3.58,33.97,3.58
				C186.55,246.69,200.64,259.95,200,256z"/>
		</g>
		<path class="st14" d="M156,240c-17.41-1.37-30.32,5.4-43.98,21.83C101.82,274.1,100.04,279.63,101,285c0,0,3.82,15.2,31,22
			c16,4,44-2,57-6c0,0,12-13,9-23.88C198,277.12,194,243,156,240z"/>
		<g>
			<path class="st3" d="M107,303c0,0,20,9,36,9c13,0,25.68,0.3,39-5c0,0,0,14-36,12C119.04,317.5,107,303,107,303z"/>
		</g>
		<circle cx="153.08" cy="265.2" r="29.2"/>
		<circle class="st14" cx="133.18" cy="266.79" r="5.36"/>
		<path d="M188.24,249.16c0,0-3.58-5.36-1.79-8.94c0,0-1.79,3.58-1.79,7.15c0,0-5.36-5.36-1.79-16.09c0,0-5.36,5.36-3.58,12.51
			c0,0-7.15-14.3-3.58-23.24c0,0-5.36,10.73-1.79,19.66c0,0-10.73-8.94-7.15-28.6c0,0-5.36,14.3-1.79,25.03
			c0,0-12.51-14.3-7.15-32.18c0,0-8.94,16.09-1.79,30.39c0,0-16.09-19.66-10.73-37.54c0,0-8.94,21.45,0,37.54
			c0,0-17.88-19.66-14.3-39.33c0,0-7.15,25.03,1.79,41.12c0,0-16.09-14.3-16.09-33.97c0,0-7.15,32.18,7.15,41.12l14.3-7.15
			c0,0,19.66-1.79,25.03,0c5.36,1.79,23.24,10.73,26.82,16.09L188.24,249.16z"/>
		<path d="M97.96,294.2c0,0-8.64-2.91-13.78,9.04c0,0,6.46-8.18,16.98-5.93c0,0-10.52-2.25-10.58,12.16c0,0,7.14-13.5,17.33-8.59
			c0,0-8.87-1.14-10.46,11.27c0,0,12.46-12.82,20.87-8.13L97.96,294.2z"/>
		<circle class="st14" cx="153.21" cy="259.47" r="11.79"/>
		<circle class="st14" cx="143.1" cy="275.55" r="3.43"/>
	</g>
	<path class="st17" d="M260.53,196.46c1.73,4.79,20.08,6.12,25.17,6.38c5.09,0.26,44.82,10.95,52.41,32.24
		c0,0-1.33-13.84-14.82-29.31c-14.61-13.16-38.49-15.22-38.49-15.22s4.22-2.84,7.76-2.15c0,0-12.59-3.19-18.92,1.08
		c0,0,2.8-4.96,4.91-6.38c0,0-8.32,3.15-9.44,5.13c0,0,0.13-2.54,2.8-4.96C271.9,183.27,256.95,186.59,260.53,196.46z"/>
	<path class="st17" d="M183.33,193.88c6.56-3,2.53-11.59-0.03-14.33c-2.56-2.74-13.16-3.12-13.16-3.12s6.29,2.34,7.27,4.5
		c0,0-25.23-6.73-36.02-1.8c-10.79,4.93-8.63,3.94-8.63,3.94s6.96-1.88,8.54-1.29c0,0-18.83,7.3-23.24,11.92
		s-14.98,18.58-14.98,18.58s19.7-16.82,29.31-18.6C142.01,191.89,171.47,199.3,183.33,193.88z"/>
</g>
</svg>
