<?xml version="1.0" encoding="utf-8"?>
<!-- Generator: Adobe Illustrator 24.0.2, SVG Export Plug-In . SVG Version: 6.00 Build 0)  -->
<svg version="1.1" xmlns="http://www.w3.org/2000/svg" xmlns:xlink="http://www.w3.org/1999/xlink" x="0px" y="0px"
	 viewBox="0 0 480 480" style="enable-background:new 0 0 480 480;" xml:space="preserve">
<style type="text/css">
	.st0{display:none;}
	.st1{display:inline;fill:#293036;}
	.st2{display:inline;fill:#171B1E;}
	.st3{fill:#FEBDC9;stroke:#293036;stroke-width:5;stroke-miterlimit:10;}
	.st4{fill:#FFFE8A;stroke:#293036;stroke-width:5;stroke-miterlimit:10;}
	.st5{opacity:0.19;fill:#171B1E;}
</style>
<g id="candy-empty" class="st0">
	<path class="st1" d="M164.27,112.96c-34.73,18.52-120.7,74.15-44.83,200.02c0,0-29.31-15.52-60.35-13.79
		c-23.19,1.29-39.65,9.32-46.48,13.29c-1.66,0.97-1.8,3.29-0.27,4.46c3.83,2.94,9.97,8.69,12.27,16.74
		c3.45,12.07-1.72,15.52,1.72,24.14s20.69,17.24,25.87,27.59c5.17,10.35,3.45,20.69,13.79,27.59c10.35,6.9,24.14,10.35,31.04,15.52
		s13.79,15.52,20.69,20.69c6.9,5.17,15.52,1.72,22.42,3.45c6.9,1.72,13.79,10.35,18.97,10.35c5.17,0,7.76-33.62,6.04-52.59
		c-1.72-18.97-12.07-53.45-12.07-53.45s124.15,41.38,187.95-27.59s25.87-148.29,20.69-165.54c0,0,41.38,18.97,60.35,18.97
		c18.97,0,37.94-8.62,43.11-10.35c5.17-1.72-1.72-25.87-6.9-39.66s-15.52-17.24-20.69-25.87s-8.62-27.59-13.79-34.49
		s-18.97-10.35-25.87-15.52c-6.9-5.17-13.79-20.69-20.69-25.87s-17.24-3.45-24.14-5.17s-17.24-13.79-22.42-13.79
		c-5.17,0-18.99,36.33-20.69,48.28c-1.72,12.07-3.45,48.28,1.72,60.35C311.7,120.72,241.87,71.58,164.27,112.96z"/>
	<path class="st2" d="M465.17,172.45c3.43-1.14,1.55-12.15-1.61-23.45c-3.82,5.44-11.32,8.79-25.12,12.24
		c-27.72,6.93-63.8-3.45-94.84-13.79c2.59,14.66,38.8,102.6-26.73,159.5c-72.05,62.57-159.5,33.62-178.47,33.62
		c0.86,18.11,5.17,34.49,5.17,55.18c0,10.63-1.72,32.76-12.67,56.44c3.21-0.08,6.36-0.25,9.22,0.46
		c6.9,1.72,13.79,10.35,18.97,10.35c5.17,0,7.76-33.62,6.04-52.59c-1.72-18.97-12.07-53.45-12.07-53.45s124.15,41.38,187.95-27.59
		s25.87-148.29,20.69-165.54c0,0,41.38,18.97,60.35,18.97C441.03,182.8,459.99,174.17,465.17,172.45z"/>
</g>
<g id="candy-score">
	<path class="st3" d="M164.27,112.96c-34.73,18.52-120.7,74.15-44.83,200.02c0,0-29.31-15.52-60.35-13.79
		c-23.19,1.29-39.65,9.32-46.48,13.29c-1.66,0.97-1.8,3.29-0.27,4.46c3.83,2.94,9.97,8.69,12.27,16.74
		c3.45,12.07-1.72,15.52,1.72,24.14s20.69,17.24,25.87,27.59c5.17,10.35,3.45,20.69,13.79,27.59c10.35,6.9,24.14,10.35,31.04,15.52
		s13.79,15.52,20.69,20.69c6.9,5.17,15.52,1.72,22.42,3.45c6.9,1.72,13.79,10.35,18.97,10.35c5.17,0,7.76-33.62,6.04-52.59
		c-1.72-18.97-8.63-56.91-8.63-56.91s120.72,44.84,184.52-24.14s25.87-148.29,20.69-165.54c0,0,41.38,18.97,60.35,18.97
		c18.97,0,37.94-8.62,43.11-10.35c5.17-1.72-1.72-25.87-6.9-39.66s-15.52-17.24-20.69-25.87s-8.62-27.59-13.79-34.49
		s-18.97-10.35-25.87-15.52c-6.9-5.17-13.79-20.69-20.69-25.87s-17.24-3.45-24.14-5.17s-17.24-13.79-22.42-13.79
		c-5.17,0-18.99,36.33-20.69,48.28c-1.72,12.07-3.45,48.28,1.72,60.35C311.7,120.72,241.87,71.58,164.27,112.96z"/>
	<path class="st4" d="M464,171c5-1.67-3.04-26.03-8.04-39.37c-5-13.34-15.01-16.68-20.01-25.02c-5-8.34-8.34-26.69-13.34-33.36
		c-5-6.67-18.35-10.01-25.02-15.01c-6.67-5-13.34-20.01-20.01-25.02c-6.67-5-16.68-3.34-23.35-5c-6.67-1.67-16.68-13.34-21.68-13.34
		c-5,0-18.36,35.14-20.01,46.7c-1.67,11.68-9.02,43.92,0.98,59.92c0,0,15,11,23,17s19,18,24,23c6.62,2.96,44.98,19.5,61.5,19.5
		C440.35,181,459,172.67,464,171z"/>
	<path class="st4" d="M135.5,334.5c-6.64-6.64-12-14-16.33-21.96c-1.67-1.04-29.05-15.07-60.09-13.35
		c-23.19,1.29-39.65,9.32-46.48,13.29c-1.66,0.97-1.8,3.29-0.27,4.46c3.83,2.94,9.97,8.69,12.27,16.74
		c3.45,12.07-1.72,15.52,1.72,24.14c3.45,8.62,20.69,17.24,25.87,27.59c5.17,10.35,3.45,20.69,13.79,27.59
		c10.35,6.9,24.14,10.35,31.04,15.52c6.9,5.17,13.79,15.52,20.69,20.69c6.9,5.17,15.52,1.72,22.42,3.45
		c6.9,1.72,13.79,10.35,18.97,10.35c5.17,0,7.76-33.62,6.04-52.59c-1.72-18.97-7.74-55.94-7.63-55.91
		C149.76,347.99,142.5,341.5,135.5,334.5z"/>
	<path class="st4" d="M299.99,169.65c-36.02-40.6-79.1-58.56-113.35-66.32c-7.35,2.44-14.82,5.6-22.37,9.63
		c-13.12,7-33.55,19.29-49.81,38.67c34.68,4.09,83.5,24.03,116.04,65.87c40.25,51.76,48.07,101.23,41.89,148.21
		c24.99-4.93,49.51-15.69,68.63-36.35c2.13-2.3,4.13-4.61,6.04-6.93C349.08,284.48,344.54,219.86,299.99,169.65z"/>
	<path class="st5" d="M408.5,152.5c-25.99-0.76-49.5-5.5-63-6c3.5,12.5,39,104-31.5,156.5c-46.76,34.82-142.5,34.5-178.5,31.5
		c3,29,7,52,6.5,66.5c-0.41,11.86-3.18,35.41-7.34,51.12c1.89,0,3.74,0.11,5.47,0.54c6.9,1.72,13.79,10.35,18.97,10.35
		c5.17,0,7.76-33.62,6.04-52.59c-1.72-18.97-8.63-56.91-8.63-56.91s120.72,44.84,184.52-24.14s25.87-148.29,20.69-165.54
		c0,0,41.38,18.97,60.35,18.97c18.97,0,37.94-8.62,43.11-10.35c4.05-1.35,0.71-16.4-3.41-29.5
		C450.67,147.16,430.76,153.15,408.5,152.5z"/>
</g>
</svg>
