<?xml version="1.0" encoding="utf-8"?>
<!-- Generator: Adobe Illustrator 24.0.2, SVG Export Plug-In . SVG Version: 6.00 Build 0)  -->
<svg version="1.1" id="Lager_2" xmlns="http://www.w3.org/2000/svg" xmlns:xlink="http://www.w3.org/1999/xlink" x="0px" y="0px"
	 viewBox="0 0 480 480" style="enable-background:new 0 0 480 480;" xml:space="preserve">
<style type="text/css">
	.st0{fill:#293036;}
	.st1{fill:#171B1E;}
</style>
<path class="st0" d="M164.27,112.96c-34.73,18.52-120.7,74.15-44.83,200.02c0,0-29.31-15.52-60.35-13.79
	c-23.19,1.29-39.65,9.32-46.48,13.29c-1.66,0.97-1.8,3.29-0.27,4.46c3.83,2.94,9.97,8.69,12.27,16.74
	c3.45,12.07-1.72,15.52,1.72,24.14s20.69,17.24,25.87,27.59c5.17,10.35,3.45,20.69,13.79,27.59c10.35,6.9,24.14,10.35,31.04,15.52
	s13.79,15.52,20.69,20.69c6.9,5.17,15.52,1.72,22.42,3.45c6.9,1.72,13.79,10.35,18.97,10.35c5.17,0,7.76-33.62,6.04-52.59
	c-1.72-18.97-12.07-53.45-12.07-53.45s124.15,41.38,187.95-27.59s25.87-148.29,20.69-165.54c0,0,41.38,18.97,60.35,18.97
	c18.97,0,37.94-8.62,43.11-10.35c5.17-1.72-1.72-25.87-6.9-39.66s-15.52-17.24-20.69-25.87s-8.62-27.59-13.79-34.49
	s-18.97-10.35-25.87-15.52c-6.9-5.17-13.79-20.69-20.69-25.87s-17.24-3.45-24.14-5.17s-17.24-13.79-22.42-13.79
	c-5.17,0-18.99,36.33-20.69,48.28c-1.72,12.07-3.45,48.28,1.72,60.35C311.7,120.72,241.87,71.58,164.27,112.96z"/>
<path class="st1" d="M465.17,172.45c3.43-1.14,1.55-12.15-1.61-23.45c-3.82,5.44-11.32,8.79-25.12,12.24
	c-27.72,6.93-63.8-3.45-94.84-13.79c2.59,14.66,38.8,102.6-26.73,159.5c-72.05,62.57-159.5,33.62-178.47,33.62
	c0.86,18.11,5.17,34.49,5.17,55.18c0,10.63-1.72,32.76-12.67,56.44c3.21-0.08,6.36-0.25,9.22,0.46c6.9,1.72,13.79,10.35,18.97,10.35
	c5.17,0,7.76-33.62,6.04-52.59c-1.72-18.97-12.07-53.45-12.07-53.45s124.15,41.38,187.95-27.59s25.87-148.29,20.69-165.54
	c0,0,41.38,18.97,60.35,18.97C441.03,182.8,459.99,174.17,465.17,172.45z"/>
</svg>
