<?xml version="1.0" encoding="utf-8"?>
<!-- Generator: Adobe Illustrator 24.0.2, SVG Export Plug-In . SVG Version: 6.00 Build 0)  -->
<svg version="1.1" xmlns="http://www.w3.org/2000/svg" xmlns:xlink="http://www.w3.org/1999/xlink" x="0px" y="0px"
	 viewBox="0 0 480 480" style="enable-background:new 0 0 480 480;" xml:space="preserve">
<style type="text/css">
	.st0{fill:#D9DBDB;}
	.st1{fill:url(#SVGID_1_);}
	.st2{fill:#5591BE;}
	.st3{fill:#559ABE;}
	.st4{fill:url(#SVGID_2_);}
	.st5{fill:#FFFFFF;}
	.st6{fill:#FFFFFF;stroke:#000000;stroke-width:1.5;stroke-miterlimit:10;}
	.st7{display:none;}
	.st8{display:inline;}
	.st9{fill:url(#SVGID_3_);}
	.st10{fill:#FFFFFF;stroke:#000000;stroke-width:2;stroke-miterlimit:10;}
	.st11{fill:#427489;}
	.st12{fill:#345B68;}
	.st13{fill:#FE9EC9;}
	.st14{fill:#FEBDC9;}
	.st15{fill:#FFFE4F;}
</style>
<g id="tårta">
	<ellipse class="st0" cx="239.75" cy="438.47" rx="213.25" ry="32.53"/>
	<g>
		<linearGradient id="SVGID_1_" gradientUnits="userSpaceOnUse" x1="239.75" y1="232.2626" x2="239.75" y2="493.062">
			<stop  offset="0" style="stop-color:#8BC8DA"/>
			<stop  offset="0.2474" style="stop-color:#86C2D7"/>
			<stop  offset="0.5614" style="stop-color:#76B3CF"/>
			<stop  offset="0.91" style="stop-color:#5D99C2"/>
			<stop  offset="1" style="stop-color:#5591BE"/>
		</linearGradient>
		<path class="st1" d="M445.05,244.02v195.16c-0.01,0.01-0.03,0.01-0.03,0.01c-9.69,8.75-98.08,24.58-205.27,24.58
			c-107.22,0-194.95-15.83-204.62-24.58c-0.3-0.26-0.53-0.55-0.68-0.82V244.02H445.05z"/>
	</g>
	<g>
		<path class="st2" d="M34.45,244.02c0,0-11.57,17.35,1.45,20.24c8.58,1.91,13.01-5.78,13.01-5.78s1.45,10.12,15.9,11.57
			c14.46,1.45,17.35-8.67,17.35-8.67s4.34,10.12,23.13,11.57s23.13-8.67,23.13-8.67s5.78,11.57,24.58,11.57s24.58-8.67,24.58-8.67
			s5.78,8.67,26.02,8.67s27.47-7.23,27.47-7.23s10.12,7.23,31.81,7.23s30.36-7.23,30.36-7.23s13.01,8.67,33.25,7.23
			c20.24-1.45,24.58-8.67,24.58-8.67s11.57,5.78,27.47,4.34c15.9-1.45,18.79-10.12,18.79-10.12s8.67,5.78,20.24,4.34
			s14.46-10.12,14.46-10.12s5.78,3.4,13.01,2.43c7.23-0.98,0-13.99,0-13.99H34.45z"/>
	</g>
	<g>
		<ellipse class="st3" cx="239.75" cy="244.62" rx="205.83" ry="17.15"/>
	</g>
	<g>
		<linearGradient id="SVGID_2_" gradientUnits="userSpaceOnUse" x1="239.75" y1="110.8185" x2="239.75" y2="316.7698">
			<stop  offset="0.5842" style="stop-color:#8BC8DA"/>
			<stop  offset="0.8315" style="stop-color:#5591BE"/>
		</linearGradient>
		<path class="st4" d="M326.5,239.68c0,3.99-38.83,7.23-86.75,7.23S153,243.67,153,239.68c0-0.32,0.25-0.64,0.72-0.94V132.19
			c5.52,3.54,41.93,6.29,86.02,6.29s80.5-2.75,86.02-6.29v106.55C326.25,239.04,326.5,239.68,326.5,239.68z"/>
	</g>
	<g>
		<path class="st2" d="M153,132.69c0,0,0,34.7,0,36.14c0,1.45-2.89,4.34-2.89,7.23s1.4,5.33,3.61,4.15
			c5.06-2.7-2.17-31.62,3.61-31.62s7.23,1.45,7.23,10.12s2.89,40.48,1.45,43.37c-1.45,2.89-2.54,6.32,0,10.12
			c2.89,4.34,7.23,2.89,8.67,0c1.23-2.47,1.41-4.54-0.35-8.21c-0.86-1.79-1.32-3.74-1.52-5.72c-1.06-10.49-2.97-38.77,7.66-35.23
			c13.01,4.34,10.12,52.05,10.12,57.83c0,4.34-1.45,7.23-1.45,10.12c0,1.45,1.31,4.06,3.93,4.32c2.64,0.26,4.85-2.1,4.74-4.75
			c-0.18-4.28-2.88-6.79-2.88-15.47c0-5.78-2.89-52.05,4.34-56.38c5.54-3.33,8.72,1.62,10.12,7.23c1.45,5.78,1.45,8.67,0,13.01
			c-0.65,1.94-0.91,5.4,0,7.23c1.45,2.89,5.78,2.89,7.23-1.45c1.45-4.34-4.31-8.81-2.89-15.9c1.45-7.23,5.78-10.12,8.67-10.12
			s5.78,2.89,5.78,8.67s1.45,36.14,0,39.04c-1.45,2.89-1.45,7.23,0,8.67c2.89,2.89,6.31,0.38,7.23-1.45
			c1.45-2.89-0.53-5.4-1.45-7.23c-1.45-2.89,0.31-21.43,1.45-23.13c2.89-4.34,10.12-4.34,11.57,2.89c1.45,7.23,4.15,37.75,2.8,41.29
			c-1.35,3.53-0.51,5.82,1.54,7.87c1.45,1.45,5.78,0,5.78-2.89s-1.45-4.34-1.45-7.23c0-5.78-2.89-47.71,4.34-59.28
			c7.66-12.26,14.58-14.67,24.58-8.67c7.23,4.34,5.78,37.59,5.78,39.04c0,1.45-1.45,4.34-1.45,7.23s2.89,4.34,4.34,4.34
			c2.89,0,5.94-2.95,4.34-7.23c-4.34-11.57-2.89-33.25,0-36.14c2.89-2.89,7.23,0,7.23,5.78s-1.45,8.67,0,11.57s3.69,2.74,4.34,1.45
			c1.45-2.89,0-5.78,0-7.23c0-1.45-1.79-12.67,1.45-15.9c2.89-2.89,11.57-2.89,11.57,4.34c0,7.23,1.45,26.02,0,28.92
			s0,7.23,2.89,7.23c4.34,0,5.78-2.89,4.34-5.78c-0.65-1.29-2.89-2.89-2.89-7.23s0-54.94,0-54.94H153z"/>
	</g>
	<g>
		<path class="st3" d="M326.5,132.69c0,0.32-0.25,0.64-0.72,0.94c-5.52,3.54-41.93,6.29-86.02,6.29s-80.5-2.75-86.02-6.29
			c-0.48-0.3-0.72-0.62-0.72-0.94c0-3.99,38.83-7.23,86.75-7.23S326.5,128.7,326.5,132.69z"/>
	</g>
	<g id="gasyr-cirklar">
		<g>
			<circle class="st2" cx="47.46" cy="268.59" r="2.89"/>
		</g>
		<g>
			<circle class="st2" cx="82.16" cy="272.93" r="2.89"/>
		</g>
		<g>
			<circle class="st2" cx="128.43" cy="275.82" r="2.89"/>
		</g>
		<g>
			<circle class="st2" cx="177.58" cy="277.27" r="2.89"/>
		</g>
		<g>
			<circle class="st2" cx="231.08" cy="277.27" r="2.89"/>
		</g>
		<g>
			<circle class="st2" cx="293.24" cy="277.27" r="2.89"/>
		</g>
		<g>
			<circle class="st2" cx="352.52" cy="274.38" r="2.89"/>
		</g>
		<g>
			<circle class="st2" cx="398.78" cy="268.59" r="2.89"/>
		</g>
		<g>
			<circle class="st2" cx="434.93" cy="262.81" r="2.89"/>
		</g>
	</g>
</g>
<g id="ansikte_-gissa">
	<g id="rynkor_2_">
		<path d="M182.64,361.84c0,0,4.34-4.34,10.12-4.34s10.12,1.45,11.57,2.89c0,0-8.67-1.45-11.57-1.45S184.09,360.4,182.64,361.84z"/>
		<path d="M259.27,354.62c0,0,10.12-1.45,15.9,0c5.78,1.45,10.12,7.23,10.12,7.23s-5.78-4.34-11.57-5.78
			S259.27,354.62,259.27,354.62z"/>
		<path d="M169.63,369.07c0,0,13.01,4.34,21.69,4.34s20.24-7.23,21.69-8.67c0,0-5.78,14.46-21.69,14.46S171.08,371.97,169.63,369.07
			z"/>
		<path d="M246.26,366.18c0,0,8.67,7.23,26.02,5.78c0,0,10.12,0,13.01-4.34c0,0,0,2.89-1.45,4.34c0,0,10.12-1.45,13.01-4.34
			c0,0-5.78,8.67-27.47,8.67C247.7,376.3,246.26,366.18,246.26,366.18z"/>
	</g>
	<g id="mun_1_">
		<path d="M158.74,354.09c0.16-0.21,0.49-0.05,0.41,0.2c-1.24,3.97-5.2,17.55-3.98,24.9c1.45,8.67,10.12,28.92,40.48,30.36
			s78.07-4.34,95.42-11.57c16.37-6.82,34.03-29.1,29.89-53.46c-0.05-0.29,0.36-0.38,0.44-0.1c1.5,5.16,3.39,14.09,1.47,21.75
			c-2.81,11.23-15.15,25.18-17.19,27.31c-0.09,0.09-0.09,0.22,0,0.31c0.85,0.87,5.02,5.25,6.7,9c0.1,0.23-0.17,0.44-0.36,0.28
			c-1.99-1.77-7.6-6.26-12.27-5.09c-5.78,1.45-10.12,2.89-10.12,4.34c0,1.37,7.84,5.36,8.61,11.96c0.03,0.25-0.3,0.38-0.43,0.16
			c-1.29-2.22-5-7.78-9.63-7.78c-5.78,0-1.45,1.45-5.78,5.78c-4.25,4.25-8.49,5.72-14.1,5.78c-0.17,0-0.28,0.16-0.21,0.31
			c0.37,0.82,1.3,3.15,1.3,5.47c0,0-7.23-13.01-13.01-13.01c-5.78,0-13.01,1.45-15.9,7.23c-2.33,4.66-3.72,8.38-4.17,10.4
			c-0.05,0.24-0.39,0.24-0.45,0c-0.39-1.63-1.05-4.54-1.15-5.79c-0.01-0.15-0.14-0.25-0.29-0.21c-1.34,0.38-7.29,2.55-9.85,11.5
			c-2.15,7.52-3.5,16.64-4.05,20.83c-0.04,0.28-0.44,0.26-0.46-0.02c-0.33-4.88-0.95-16.01,0.17-19.36
			c0.46-1.37,1.45-5.78,2.89-8.67c0.62-1.25-6.71-6.83-9.81,1.92c-0.08,0.22-0.39,0.19-0.44-0.04c-0.29-1.28-1.22-3.33-4.2-3.33
			c-4.34,0-8.67,11.57-8.67,15.9c0,0,0-7.23,2.89-14.46s0-13.01-2.89-13.01s-17.35,11.57-18.79,18.79c0,0,2.59-9.08,4.1-11.27
			c0.09-0.13,0.02-0.31-0.14-0.34c-0.88-0.16-3.14-0.9-5.4-4.29c-2.89-4.34-1.45-5.78-2.89-7.23c-1.37-1.37-10.47-1.44-15.13,3.43
			c-0.17,0.18-0.47,0-0.38-0.24c0.73-1.81,2.61-5.36,6.7-7.46c0.08-0.04,0.13-0.12,0.12-0.21c-0.04-0.6-0.38-2.94-2.88-4.19
			c-2.89-1.45-7.23,0-7.23,0s1.25-2.49,2.58-2.85c0.14-0.04,0.2-0.21,0.12-0.33c-1.02-1.55-5.75-8.85-7.04-12.72
			c-1.45-4.34-1.45-8.67-1.45-13.01C152.28,368,155.91,357.99,158.74,354.09z"/>
		<path class="st5" d="M181.75,411.66c2.58-0.86,12.15,0,10.94,2.43s-3.65,4.86-4.86,4.86S178.1,412.88,181.75,411.66z"/>
		<path class="st5" d="M211.64,421.85c2.49,0.62,6.43-2.57,6.43-6.43s-5.14-2.57-6.43-2.57c-1.29,0-5.14,0-5.14,1.29
			S206.5,420.57,211.64,421.85z"/>
		<path class="st5" d="M232.09,413.36c-3.63,0-9.69-1.21-9.69,3.63s4.85,4.85,6.06,4.85s9.69-2.42,9.69-6.06
			C238.15,412.15,235.73,413.36,232.09,413.36z"/>
		<path class="st5" d="M280.62,404.49c3.59,0-3.81,8.88-7.61,10.15c-3.81,1.27-11.42-3.81-10.15-5.07S275.55,404.49,280.62,404.49z"
			/>
	</g>
	<g id="ögonbryn_2_">
		<path d="M228.18,323.53c1.45,0,2.89-4.34,2.89-5.78s-2.89-7.23-4.34-10.12c-1.29-2.59-2.89-10.12-7.23-13.01
			c-4.34-2.89-15.9-2.89-20.24,1.45c-4.34,4.34-5.78,15.9-8.67,18.79c-2.89,2.89-8.67,11.57-18.79,13.01c0,0,5.78,1.45,8.67,0
			c0,0,0,1.45-4.34,2.89c0,0,1.45,1.45,5.78,0c4.34-1.45,4.34-4.34,8.67-8.67c4.34-4.34,8.67-8.67,11.57-13.01
			c2.89-4.34,2.89-5.78,4.34-7.23c1.45-1.45,4.64-2.74,7.23-1.45c2.89,1.45,5.78,4.34,7.23,7.23c1.45,2.89,5.78,7.23,5.78,11.57
			C226.74,320.64,226.74,323.53,228.18,323.53z"/>
		<path d="M259.99,301.85c4.34,0,13.01,2.89,17.35,8.67c2.41,3.21,9.86,19.62,23.81,21.59c0.27,0.04,0.46-0.28,0.29-0.5
			c-1.69-2.07-7.42-9.21-11.08-15.31c-4.34-7.23-13.01-28.92-17.35-30.36c-4.23-1.41-9.84-2.89-12.8-0.21
			c-0.12,0.11-0.31,0.11-0.42-0.02c-0.4-0.46-1.24-1.23-1.24-1.23c-1.45-1.45-5.78-1.45-7.23,1.45c-1.45,2.89-5.78,8.67-7.23,13.01
			c-1.08,3.25-2.17,9.75-2.64,13.41c-0.05,0.36,0.46,0.49,0.58,0.15c1.07-2.88,3.01-7.76,4.95-10.67c2.89-4.34,5.78-7.23,7.23-7.23
			c1.45,0-2.89,1.45-4.34,5.78c-0.62,1.86-2.7,6.78-0.34,13.54c0.1,0.28,0.5,0.27,0.58-0.01
			C250.93,310.95,253.94,301.85,259.99,301.85z"/>
	</g>
	<g id="ögon_2_">
		<path class="st6" d="M170.35,361.12c0,0,12.29-10.84,23.86-10.84s22.41,6.51,22.41,6.51s-2.17-25.3-17.35-26.02
			C186.97,330.18,177.58,337.99,170.35,361.12z"/>
		<path class="st6" d="M243.36,354.62c0,0,5.78-7.23,27.47-7.23s28.92,11.57,28.92,11.57s-7.23-31.81-24.58-33.25
			C257.82,324.26,246.26,343.05,243.36,354.62z"/>
		<circle cx="280.23" cy="333.65" r="5.78"/>
		<circle cx="204.33" cy="337.27" r="5.06"/>
		<circle class="st5" cx="202.16" cy="336.54" r="1.45"/>
		<circle class="st5" cx="277.34" cy="333.65" r="1.45"/>
	</g>
</g>
<g id="amsikte_-_rätt" class="st7">
	<g id="mun_3_" class="st8">
		<path d="M185.76,297.6c0.1-0.14,0.33-0.04,0.28,0.13c-0.83,2.66-3.48,11.74-2.66,16.65c0.97,5.8,6.77,19.33,27.07,20.3
			c20.3,0.97,52.2-2.9,63.81-7.73c10.95-4.56,22.76-19.46,19.99-35.74c-0.03-0.19,0.24-0.26,0.3-0.07c1,3.45,1.29,9.27,0.98,14.55
			c-0.48,8.22-2.77,21.58-6.28,29.49c-3.87,8.7-9.67,20.3-18.37,26.1c-10.79,7.19-35.77,6.77-50.27,3.87
			c-19.93-3.99-32.03-21.53-34.8-27.07c-2.9-5.8-4.83-16.43-4.83-19.33c0-3.06,0-5.8,0.48-9.18
			C181.82,306.92,183.87,300.2,185.76,297.6z"/>
		<g id="tunga">
			<linearGradient id="SVGID_3_" gradientUnits="userSpaceOnUse" x1="237.8153" y1="369.9459" x2="237.8153" y2="347.2001">
				<stop  offset="0.2257" style="stop-color:#FEBDC9"/>
				<stop  offset="0.416" style="stop-color:#FEAFC9"/>
				<stop  offset="0.7063" style="stop-color:#FE9EC9"/>
			</linearGradient>
			<path class="st9" d="M283.43,346.73c-4.96-2.16-13.15-1.9-20.3-1.9c-9.67,0-25.14,4.83-25.14,4.83s-12.57-3.87-22.24-3.87
				c-7.8,0-19.38,0.58-23.56,1.56c5.94,6.99,15.53,15.21,28.39,17.78c14.5,2.9,39.48,3.33,50.27-3.87
				C276,357.85,280.11,352.41,283.43,346.73z"/>
		</g>
		<path d="M184.82,304.23c0.97-6.77,0-3.87,0-3.87c-1.05,3.91-2.06,10.38-1.45,14.02c0.97,5.8,6.77,19.33,27.07,20.3
			c20.3,0.97,52.2-2.9,63.81-7.73c4.24-1.76,8.6-5.08,12.2-9.42c1.42-2.02,2.8-4.03,4.03-5.92c1.8-3.27,3.12-6.86,3.75-10.66
			C293,304,292,305,288.27,311c-2.9,4.66-8.47,9.1-14.27,12s-16.26,5.05-21,6c-4.83,0.97-14,2-20.81,2.3
			c-4.83,0.21-12.33-0.3-16.19-0.3s-10.3-0.13-19-4s-10.24-8.27-11.21-11.17C184.82,312.93,184.39,307.26,184.82,304.23z"/>
		<path d="M296,309.07c0-1.93-0.42-14.51-0.97-14.5c-0.68,8.26-2.53,33.25-5.8,40.6c-3.87,8.7-9.67,20.3-18.37,26.1
			c-10.79,7.19-35.77,6.77-50.27,3.87c-19.93-3.99-32.03-21.53-34.8-27.07c-2.9-5.8-4.83-16.43-4.83-19.33
			c0-1.05,0.95-9.62,0.97-10.63c-0.02-0.8-1.92,6.02-1.92,11.9c0,6,0.66,8.49,1.92,12.27c3.87,11.6,8.7,20.3,24.17,30.94
			c13.26,9.12,49.3,9.67,63.81,2.9c11.39-5.31,20.3-25.14,22.24-30.94S296,316.8,296,309.07z"/>
		<g id="tänder_1_">
			<path class="st5" d="M241.86,340.97c0.97,0.97,10.63,0,11.6-0.97c0.7-0.7-0.12-5.42-0.62-8c-3.81,0.58-7.84,1.09-11.93,1.51
				C240.97,334.83,241.26,340.37,241.86,340.97z"/>
			<path class="st5" d="M227.36,340.97c0.97,1.93,10.63,0.97,11.6,0c0.7-0.7,0.38-4.99,0.16-7.27c-4.23,0.41-8.49,0.71-12.64,0.91
				C226.58,336.95,226.82,339.88,227.36,340.97z"/>
			<path class="st5" d="M255.4,338.07c0.68,2.05,8.7,0,8.7-0.97c0-0.73,0-4.72-0.41-7.08c-2.82,0.62-5.93,1.2-9.22,1.73
				C254.54,333.41,254.76,336.15,255.4,338.07z"/>
			<path class="st5" d="M273.76,334.2c0.64-1.29,0-4.72-0.5-6.86c-2.2,0.83-4.98,1.62-8.18,2.37c0.05,2.2,0.23,6.43,0.95,6.43
				C267,336.14,272.8,336.14,273.76,334.2z"/>
			<path class="st5" d="M274.12,327c0.37,2.26,0.97,5.27,1.57,5.27c0.97,0,5.8-1.93,5.8-3.87c0-0.98-0.49-3.19-0.98-5.14
				c-2.05,1.57-4.17,2.82-6.27,3.69C274.21,326.97,274.16,326.98,274.12,327z"/>
			<path class="st5" d="M281.63,322.37c0.12,1.77,0.36,3.63,0.84,4.1c0.97,0.97,4.83-1.93,4.83-3.87c0-0.96-0.24-3.36-0.48-5.53
				C285.22,319.06,283.47,320.84,281.63,322.37z"/>
			<path class="st5" d="M291.17,315.83c0-0.9-0.21-2.86-0.44-4.68c-0.97,1.83-2.09,3.55-3.31,5.15c0.12,1.7,0.36,3.4,0.85,3.4
				C289.23,319.7,291.17,317.77,291.17,315.83z"/>
			<path class="st5" d="M213.88,334.8c0.09,2.35,0.31,5.57,0.91,6.17c0.97,0.97,8.7,0.97,9.67,0c0.61-0.61,0.45-3.93,0.25-6.29
				C220.93,334.83,217.28,334.87,213.88,334.8z"/>
			<path class="st5" d="M203.22,333.71c0.06,2.04,0.26,5.61,0.94,6.3c0.97,0.97,6.77,0.97,7.73,0c0.58-0.58,0.46-3.21,0.28-5.25
				c-0.58-0.02-1.16-0.04-1.73-0.07C207.79,334.56,205.39,334.21,203.22,333.71z"/>
			<path class="st5" d="M202.18,333.45c-2.56-0.68-4.79-1.6-6.73-2.68c0,2.03,0,5.65,0,6.34c0,0.97,4.83,1.93,5.8,1.93
				C201.89,339.04,202.11,335.74,202.18,333.45z"/>
			<path class="st5" d="M187.72,324.09c0,2.44,0,5.99,0,7.21c0,1.93,5.37,3.76,5.8,2.9c0.44-0.87,0.68-2.54,0.81-4.1
				C191.5,328.34,189.35,326.23,187.72,324.09z"/>
		</g>
	</g>
	<g id="ögonbryn_1_" class="st8">
		<path d="M232.19,277.16c0.97,0,1.93-2.9,1.93-3.87c0-0.97-0.97-5.8-1.93-7.73c-0.86-1.73-2.9-5.8-5.8-7.73s-9.64-3.23-13.53-1.93
			c-2.9,0.97-7.73,2.9-9.67,4.83c-1.93,1.93-9.67,8.7-16.43,9.67c0,0,3.87,0.97,5.8,0c0,0,0,0.97-2.9,1.93c0,0,0.97,0.97,3.87,0
			c2.9-0.97,6.77-3.87,9.67-6.77c2.9-2.9,5.8-2.9,8.7-3.87c3.31-1.1,5.8-0.97,6.77-0.97c1.37,0,2.14,0.1,3.87,0.97
			c1.93,0.97,3.87,3.87,4.83,5.8s3.87,3.87,3.87,6.77C231.23,275.23,231.23,277.16,232.19,277.16z"/>
		<path d="M253.46,262.66c2.9-0.97,10.67-3.5,15.47-2.9c7.73,0.97,15.47,8.7,23.65,12.51c0.17,0.08,0.31-0.19,0.19-0.33
			c-1.13-1.38-4.96-6.16-7.41-10.24c-2.9-4.83-20.3-8.7-23.2-9.67c-2.83-0.94-7.73-0.97-10.63,0c-2.05,0.68-7.73,5.8-8.7,8.7
			c-0.72,2.17-1.45,6.52-1.77,8.97c-0.03,0.24,0.3,0.33,0.39,0.1c0.71-1.93,2.01-5.19,3.31-7.14c1.93-2.9,3.87-4.83,4.83-4.83
			c0.97,0-1.93,0.97-2.9,3.87c-0.41,1.24-1.81,4.54-0.23,9.05c0.06,0.19,0.34,0.18,0.39-0.01
			C247.41,268.75,249.63,263.94,253.46,262.66z"/>
	</g>
	<g id="rynkor_1_" class="st8">
		<path d="M195.82,283.98c0,0,2.82-5.31,8.23-6.97c5.42-1.66,9.89-1.55,11.66-0.61c0,0-8.54,1.14-11.25,1.97
			C201.76,279.2,196.76,282.21,195.82,283.98z"/>
		<path d="M259.72,275.45c0,0,7.79-0.9,12.19,0.33s7.6,5.75,7.6,5.75s-4.34-3.45-8.74-4.68
			C266.37,275.63,259.72,275.45,259.72,275.45z"/>
	</g>
	<g id="ögon_1_" class="st8">
		<g id="höger">
			<path class="st6" d="M242.43,297.6c-0.02,0.09,0.09,0.16,0.15,0.09c1.04-1,5.64-4.58,18.12-4.58c12.96,0,18.2,1.54,19.16,1.87
				c0.07,0.02,0.14-0.04,0.11-0.11c-0.57-1.71-5.5-15.35-16.38-16.26C252.18,277.66,244.51,289.85,242.43,297.6z"/>
			<path d="M244.28,300.85c0,0,5.8,4.83,17.4,3.87c0,0,6.77,0,8.7-2.9c0,0,0,1.93-0.97,2.9c0,0,6.77-0.97,8.7-2.9
				c0,0-3.87,5.8-18.37,5.8S244.28,300.85,244.28,300.85z"/>
			<path d="M284.27,291.25c0,0,3.8-1.12,4.69-2.76C288.96,288.49,288.44,291.39,284.27,291.25z"/>
			<path d="M284.65,292.51c0,0,4.17,0.14,6.33-1.87c0,0-2.16,2.01-4.69,2.76c0,0,2.9,0.52,3.65,3.05c0,0-0.75-2.53-4.92-2.67
				C280.85,293.64,284.65,292.51,284.65,292.51z"/>
			<circle cx="262.54" cy="287.16" r="5.16"/>
			<circle class="st5" cx="259.94" cy="286.17" r="1.28"/>
		</g>
		<g id="vänster">
			<path class="st10" d="M193.52,297.95c0,0,8.22-0.97,15.95-0.97s14.98,2.42,14.98,2.42s-1.45-16.92-11.6-17.4
				C204.64,281.61,198.36,282.48,193.52,297.95z"/>
			<path d="M193.04,304.72c0,0,8.7,2.9,14.5,2.9s13.53-4.83,14.5-5.8c0,0-3.87,9.67-14.5,9.67
				C196.91,311.48,194.01,306.65,193.04,304.72z"/>
			<path d="M188.97,287.12c0,0,0.75,2.53,4.92,2.67C193.89,289.79,188.83,291.29,188.97,287.12z"/>
			<path d="M191.73,291.81c0,0-3.8,1.12-5.43,0.23C186.3,292.04,188.31,294.2,191.73,291.81z"/>
			<path d="M193.37,292.7c0,0-3.05,3.65-5.95,3.14C187.42,295.83,190.7,297.62,193.37,292.7z"/>
			<circle cx="209.41" cy="290.85" r="4.98"/>
			<circle class="st5" cx="207.38" cy="289.15" r="1.28"/>
		</g>
	</g>
</g>
<g id="hatt">
	<g>
		<path class="st11" d="M297.58,129.8c0,0.21-0.16,0.42-0.48,0.63c-3.68,2.36-27.95,4.19-57.35,4.19s-53.67-1.83-57.35-4.19
			c-0.32-0.2-0.48-0.41-0.48-0.63c0-2.66,25.89-4.82,57.83-4.82S297.58,127.14,297.58,129.8z"/>
	</g>
	<path class="st12" d="M274.45,74.86v53.39c-0.12,0.03-0.23,0.07-0.38,0.1c-4.76,1.14-18.32,1.98-34.32,1.98s-29.57-0.84-34.32-1.98
		c-0.14-0.03-0.26-0.07-0.38-0.1V74.86H274.45z"/>
	<g>
		<path class="st11" d="M274.45,74.67c0,0.13-0.1,0.25-0.29,0.38c-2.21,1.42-16.77,2.52-34.41,2.52s-32.2-1.1-34.41-2.52
			c-0.19-0.12-0.29-0.25-0.29-0.38c0-1.6,15.53-2.89,34.7-2.89S274.45,73.08,274.45,74.67z"/>
	</g>
	<g>
		<path class="st13" d="M248.42,41.61v31.62c0,0.03-0.03,0.06-0.07,0.1c-0.06,0.03-0.13,0.06-0.23,0.09c-1,0.3-4.37,0.53-8.37,0.53
			s-7.37-0.23-8.37-0.53c-0.1-0.03-0.17-0.06-0.23-0.09c-0.04-0.04-0.07-0.07-0.07-0.1V41.61H248.42z"/>
	</g>
	<g>
		<path class="st14" d="M248.42,41.85c0,0.05-0.02,0.11-0.07,0.16c-0.55,0.59-4.19,1.04-8.6,1.04s-8.05-0.46-8.6-1.04
			c-0.05-0.05-0.07-0.1-0.07-0.16c0-0.66,3.88-1.2,8.67-1.2S248.42,41.19,248.42,41.85z"/>
	</g>
	<path d="M239.75,41.61c0,0,0-7.23,1.45-8.67l1.45,1.45c0,0-1.45,4.34-1.45,7.23H239.75z"/>
	<path class="st15" d="M238.3,37.27c0,0-4.34-1.45-4.34-8.67s5.78-7.23,7.23-11.57c1.45-4.34-4.34-10.12-4.34-10.12
		s11.57,5.78,11.57,13.01s4.34,8.67,2.89,13.01c-1.45,4.34-7.23,4.34-7.23,4.34s2.17-3.61,0.72-5.06
		C243.36,30.77,237.58,29.32,238.3,37.27z"/>
</g>
</svg>
