<?xml version="1.0" encoding="utf-8"?>
<!-- Generator: Adobe Illustrator 24.0.2, SVG Export Plug-In . SVG Version: 6.00 Build 0)  -->
<svg version="1.1" xmlns="http://www.w3.org/2000/svg" xmlns:xlink="http://www.w3.org/1999/xlink" x="0px" y="0px"
	 viewBox="0 0 480 480" style="enable-background:new 0 0 480 480;" xml:space="preserve">
<style type="text/css">
	.st0{fill:#D9DBDB;}
	.st1{fill:url(#SVGID_1_);}
	.st2{fill:#5591BE;}
	.st3{fill:#559ABE;}
	.st4{fill:url(#SVGID_2_);}
	.st5{display:none;}
	.st6{display:inline;}
	.st7{fill:#FFFFFF;}
	.st8{fill:#FFFFFF;stroke:#000000;stroke-width:1.5;stroke-miterlimit:10;}
	.st9{fill:url(#SVGID_3_);}
	.st10{fill:#FFFFFF;stroke:#000000;stroke-width:2;stroke-miterlimit:10;}
	.st11{fill:#427489;}
	.st12{fill:#345B68;}
	.st13{fill:#FE9EC9;}
	.st14{fill:#FEBDC9;}
	.st15{fill:#FFFE4F;}
</style>
<g id="tårta">
	<ellipse class="st0" cx="239.75" cy="438.47" rx="213.25" ry="32.53"/>
	<g>
		<linearGradient id="SVGID_1_" gradientUnits="userSpaceOnUse" x1="239.75" y1="232.2626" x2="239.75" y2="493.062">
			<stop  offset="0" style="stop-color:#8BC8DA"/>
			<stop  offset="0.2474" style="stop-color:#86C2D7"/>
			<stop  offset="0.5614" style="stop-color:#76B3CF"/>
			<stop  offset="0.91" style="stop-color:#5D99C2"/>
			<stop  offset="1" style="stop-color:#5591BE"/>
		</linearGradient>
		<path class="st1" d="M445.05,244.02v195.16c-0.01,0.01-0.03,0.01-0.03,0.01c-9.69,8.75-98.08,24.58-205.27,24.58
			c-107.22,0-194.95-15.83-204.62-24.58c-0.3-0.26-0.53-0.55-0.68-0.82V244.02H445.05z"/>
	</g>
	<g>
		<path class="st2" d="M34.45,244.02c0,0-11.57,17.35,1.45,20.24c8.58,1.91,13.01-5.78,13.01-5.78s1.45,10.12,15.9,11.57
			c14.46,1.45,17.35-8.67,17.35-8.67s4.34,10.12,23.13,11.57s23.13-8.67,23.13-8.67s5.78,11.57,24.58,11.57s24.58-8.67,24.58-8.67
			s5.78,8.67,26.02,8.67s27.47-7.23,27.47-7.23s10.12,7.23,31.81,7.23s30.36-7.23,30.36-7.23s13.01,8.67,33.25,7.23
			c20.24-1.45,24.58-8.67,24.58-8.67s11.57,5.78,27.47,4.34c15.9-1.45,18.79-10.12,18.79-10.12s8.67,5.78,20.24,4.34
			s14.46-10.12,14.46-10.12s5.78,3.4,13.01,2.43c7.23-0.98,0-13.99,0-13.99H34.45z"/>
	</g>
	<g>
		<ellipse class="st3" cx="239.75" cy="244.62" rx="205.83" ry="17.15"/>
	</g>
	<g>
		<linearGradient id="SVGID_2_" gradientUnits="userSpaceOnUse" x1="239.75" y1="110.8185" x2="239.75" y2="316.7698">
			<stop  offset="0.5842" style="stop-color:#8BC8DA"/>
			<stop  offset="0.8315" style="stop-color:#5591BE"/>
		</linearGradient>
		<path class="st4" d="M326.5,239.68c0,3.99-38.83,7.23-86.75,7.23S153,243.67,153,239.68c0-0.32,0.25-0.64,0.72-0.94V132.19
			c5.52,3.54,41.93,6.29,86.02,6.29s80.5-2.75,86.02-6.29v106.55C326.25,239.04,326.5,239.68,326.5,239.68z"/>
	</g>
	<g>
		<path class="st2" d="M153,132.69c0,0,0,34.7,0,36.14c0,1.45-2.89,4.34-2.89,7.23s1.4,5.33,3.61,4.15
			c5.06-2.7-2.17-31.62,3.61-31.62s7.23,1.45,7.23,10.12s2.89,40.48,1.45,43.37c-1.45,2.89-2.54,6.32,0,10.12
			c2.89,4.34,7.23,2.89,8.67,0c1.23-2.47,1.41-4.54-0.35-8.21c-0.86-1.79-1.32-3.74-1.52-5.72c-1.06-10.49-2.97-38.77,7.66-35.23
			c13.01,4.34,10.12,52.05,10.12,57.83c0,4.34-1.45,7.23-1.45,10.12c0,1.45,1.31,4.06,3.93,4.32c2.64,0.26,4.85-2.1,4.74-4.75
			c-0.18-4.28-2.88-6.79-2.88-15.47c0-5.78-2.89-52.05,4.34-56.38c5.54-3.33,8.72,1.62,10.12,7.23c1.45,5.78,1.45,8.67,0,13.01
			c-0.65,1.94-0.91,5.4,0,7.23c1.45,2.89,5.78,2.89,7.23-1.45c1.45-4.34-4.31-8.81-2.89-15.9c1.45-7.23,5.78-10.12,8.67-10.12
			s5.78,2.89,5.78,8.67s1.45,36.14,0,39.04c-1.45,2.89-1.45,7.23,0,8.67c2.89,2.89,6.31,0.38,7.23-1.45
			c1.45-2.89-0.53-5.4-1.45-7.23c-1.45-2.89,0.31-21.43,1.45-23.13c2.89-4.34,10.12-4.34,11.57,2.89c1.45,7.23,4.15,37.75,2.8,41.29
			c-1.35,3.53-0.51,5.82,1.54,7.87c1.45,1.45,5.78,0,5.78-2.89s-1.45-4.34-1.45-7.23c0-5.78-2.89-47.71,4.34-59.28
			c7.66-12.26,14.58-14.67,24.58-8.67c7.23,4.34,5.78,37.59,5.78,39.04c0,1.45-1.45,4.34-1.45,7.23s2.89,4.34,4.34,4.34
			c2.89,0,5.94-2.95,4.34-7.23c-4.34-11.57-2.89-33.25,0-36.14c2.89-2.89,7.23,0,7.23,5.78s-1.45,8.67,0,11.57s3.69,2.74,4.34,1.45
			c1.45-2.89,0-5.78,0-7.23c0-1.45-1.79-12.67,1.45-15.9c2.89-2.89,11.57-2.89,11.57,4.34c0,7.23,1.45,26.02,0,28.92
			s0,7.23,2.89,7.23c4.34,0,5.78-2.89,4.34-5.78c-0.65-1.29-2.89-2.89-2.89-7.23s0-54.94,0-54.94H153z"/>
	</g>
	<g>
		<path class="st3" d="M326.5,132.69c0,0.32-0.25,0.64-0.72,0.94c-5.52,3.54-41.93,6.29-86.02,6.29s-80.5-2.75-86.02-6.29
			c-0.48-0.3-0.72-0.62-0.72-0.94c0-3.99,38.83-7.23,86.75-7.23S326.5,128.7,326.5,132.69z"/>
	</g>
	<g id="gasyr-cirklar">
		<g>
			<circle class="st2" cx="47.46" cy="268.59" r="2.89"/>
		</g>
		<g>
			<circle class="st2" cx="82.16" cy="272.93" r="2.89"/>
		</g>
		<g>
			<circle class="st2" cx="128.43" cy="275.82" r="2.89"/>
		</g>
		<g>
			<circle class="st2" cx="177.58" cy="277.27" r="2.89"/>
		</g>
		<g>
			<circle class="st2" cx="231.08" cy="277.27" r="2.89"/>
		</g>
		<g>
			<circle class="st2" cx="293.24" cy="277.27" r="2.89"/>
		</g>
		<g>
			<circle class="st2" cx="352.52" cy="274.38" r="2.89"/>
		</g>
		<g>
			<circle class="st2" cx="398.78" cy="268.59" r="2.89"/>
		</g>
		<g>
			<circle class="st2" cx="434.93" cy="262.81" r="2.89"/>
		</g>
	</g>
</g>
<g id="ansikte_-gissa" class="st5">
	<g id="rynkor_2_" class="st6">
		<path d="M182.64,361.84c0,0,4.34-4.34,10.12-4.34s10.12,1.45,11.57,2.89c0,0-8.67-1.45-11.57-1.45S184.09,360.4,182.64,361.84z"/>
		<path d="M259.27,354.62c0,0,10.12-1.45,15.9,0c5.78,1.45,10.12,7.23,10.12,7.23s-5.78-4.34-11.57-5.78
			S259.27,354.62,259.27,354.62z"/>
		<path d="M169.63,369.07c0,0,13.01,4.34,21.69,4.34s20.24-7.23,21.69-8.67c0,0-5.78,14.46-21.69,14.46S171.08,371.97,169.63,369.07
			z"/>
		<path d="M246.26,366.18c0,0,8.67,7.23,26.02,5.78c0,0,10.12,0,13.01-4.34c0,0,0,2.89-1.45,4.34c0,0,10.12-1.45,13.01-4.34
			c0,0-5.78,8.67-27.47,8.67C247.7,376.3,246.26,366.18,246.26,366.18z"/>
	</g>
	<g id="mun_1_" class="st6">
		<path d="M158.74,354.09c0.16-0.21,0.49-0.05,0.41,0.2c-1.24,3.97-5.2,17.55-3.98,24.9c1.45,8.67,10.12,28.92,40.48,30.36
			s78.07-4.34,95.42-11.57c16.37-6.82,34.03-29.1,29.89-53.46c-0.05-0.29,0.36-0.38,0.44-0.1c1.5,5.16,3.39,14.09,1.47,21.75
			c-2.81,11.23-15.15,25.18-17.19,27.31c-0.09,0.09-0.09,0.22,0,0.31c0.85,0.87,5.02,5.25,6.7,9c0.1,0.23-0.17,0.44-0.36,0.28
			c-1.99-1.77-7.6-6.26-12.27-5.09c-5.78,1.45-10.12,2.89-10.12,4.34c0,1.37,7.84,5.36,8.61,11.96c0.03,0.25-0.3,0.38-0.43,0.16
			c-1.29-2.22-5-7.78-9.63-7.78c-5.78,0-1.45,1.45-5.78,5.78c-4.25,4.25-8.49,5.72-14.1,5.78c-0.17,0-0.28,0.16-0.21,0.31
			c0.37,0.82,1.3,3.15,1.3,5.47c0,0-7.23-13.01-13.01-13.01c-5.78,0-13.01,1.45-15.9,7.23c-2.33,4.66-3.72,8.38-4.17,10.4
			c-0.05,0.24-0.39,0.24-0.45,0c-0.39-1.63-1.05-4.54-1.15-5.79c-0.01-0.15-0.14-0.25-0.29-0.21c-1.34,0.38-7.29,2.55-9.85,11.5
			c-2.15,7.52-3.5,16.64-4.05,20.83c-0.04,0.28-0.44,0.26-0.46-0.02c-0.33-4.88-0.95-16.01,0.17-19.36
			c0.46-1.37,1.45-5.78,2.89-8.67c0.62-1.25-6.71-6.83-9.81,1.92c-0.08,0.22-0.39,0.19-0.44-0.04c-0.29-1.28-1.22-3.33-4.2-3.33
			c-4.34,0-8.67,11.57-8.67,15.9c0,0,0-7.23,2.89-14.46s0-13.01-2.89-13.01s-17.35,11.57-18.79,18.79c0,0,2.59-9.08,4.1-11.27
			c0.09-0.13,0.02-0.31-0.14-0.34c-0.88-0.16-3.14-0.9-5.4-4.29c-2.89-4.34-1.45-5.78-2.89-7.23c-1.37-1.37-10.47-1.44-15.13,3.43
			c-0.17,0.18-0.47,0-0.38-0.24c0.73-1.81,2.61-5.36,6.7-7.46c0.08-0.04,0.13-0.12,0.12-0.21c-0.04-0.6-0.38-2.94-2.88-4.19
			c-2.89-1.45-7.23,0-7.23,0s1.25-2.49,2.58-2.85c0.14-0.04,0.2-0.21,0.12-0.33c-1.02-1.55-5.75-8.85-7.04-12.72
			c-1.45-4.34-1.45-8.67-1.45-13.01C152.28,368,155.91,357.99,158.74,354.09z"/>
		<path class="st7" d="M181.75,411.66c2.58-0.86,12.15,0,10.94,2.43s-3.65,4.86-4.86,4.86S178.1,412.88,181.75,411.66z"/>
		<path class="st7" d="M211.64,421.85c2.49,0.62,6.43-2.57,6.43-6.43s-5.14-2.57-6.43-2.57c-1.29,0-5.14,0-5.14,1.29
			S206.5,420.57,211.64,421.85z"/>
		<path class="st7" d="M232.09,413.36c-3.63,0-9.69-1.21-9.69,3.63s4.85,4.85,6.06,4.85s9.69-2.42,9.69-6.06
			C238.15,412.15,235.73,413.36,232.09,413.36z"/>
		<path class="st7" d="M280.62,404.49c3.59,0-3.81,8.88-7.61,10.15c-3.81,1.27-11.42-3.81-10.15-5.07S275.55,404.49,280.62,404.49z"
			/>
	</g>
	<g id="ögonbryn_2_" class="st6">
		<path d="M228.18,323.53c1.45,0,2.89-4.34,2.89-5.78s-2.89-7.23-4.34-10.12c-1.29-2.59-2.89-10.12-7.23-13.01
			c-4.34-2.89-15.9-2.89-20.24,1.45c-4.34,4.34-5.78,15.9-8.67,18.79c-2.89,2.89-8.67,11.57-18.79,13.01c0,0,5.78,1.45,8.67,0
			c0,0,0,1.45-4.34,2.89c0,0,1.45,1.45,5.78,0c4.34-1.45,4.34-4.34,8.67-8.67c4.34-4.34,8.67-8.67,11.57-13.01
			c2.89-4.34,2.89-5.78,4.34-7.23c1.45-1.45,4.64-2.74,7.23-1.45c2.89,1.45,5.78,4.34,7.23,7.23c1.45,2.89,5.78,7.23,5.78,11.57
			C226.74,320.64,226.74,323.53,228.18,323.53z"/>
		<path d="M259.99,301.85c4.34,0,13.01,2.89,17.35,8.67c2.41,3.21,9.86,19.62,23.81,21.59c0.27,0.04,0.46-0.28,0.29-0.5
			c-1.69-2.07-7.42-9.21-11.08-15.31c-4.34-7.23-13.01-28.92-17.35-30.36c-4.23-1.41-9.84-2.89-12.8-0.21
			c-0.12,0.11-0.31,0.11-0.42-0.02c-0.4-0.46-1.24-1.23-1.24-1.23c-1.45-1.45-5.78-1.45-7.23,1.45c-1.45,2.89-5.78,8.67-7.23,13.01
			c-1.08,3.25-2.17,9.75-2.64,13.41c-0.05,0.36,0.46,0.49,0.58,0.15c1.07-2.88,3.01-7.76,4.95-10.67c2.89-4.34,5.78-7.23,7.23-7.23
			c1.45,0-2.89,1.45-4.34,5.78c-0.62,1.86-2.7,6.78-0.34,13.54c0.1,0.28,0.5,0.27,0.58-0.01
			C250.93,310.95,253.94,301.85,259.99,301.85z"/>
	</g>
	<g id="ögon_2_" class="st6">
		<path class="st8" d="M170.35,361.12c0,0,12.29-10.84,23.86-10.84s22.41,6.51,22.41,6.51s-2.17-25.3-17.35-26.02
			C186.97,330.18,177.58,337.99,170.35,361.12z"/>
		<path class="st8" d="M243.36,354.62c0,0,5.78-7.23,27.47-7.23s28.92,11.57,28.92,11.57s-7.23-31.81-24.58-33.25
			C257.82,324.26,246.26,343.05,243.36,354.62z"/>
		<circle cx="280.23" cy="333.65" r="5.78"/>
		<circle cx="204.33" cy="337.27" r="5.06"/>
		<circle class="st7" cx="202.16" cy="336.54" r="1.45"/>
		<circle class="st7" cx="277.34" cy="333.65" r="1.45"/>
	</g>
</g>
<g id="amsikte_-_rätt">
	<g id="mun_3_">
		<path d="M159.57,353.9c0.16-0.21,0.49-0.05,0.41,0.2c-1.23,3.96-5.18,17.47-3.96,24.79c1.44,8.63,10.07,28.78,40.29,30.22
			c30.22,1.44,77.71-4.32,94.97-11.51c16.3-6.79,33.88-28.96,29.75-53.21c-0.05-0.29,0.36-0.38,0.44-0.1
			c1.49,5.13,1.93,13.8,1.46,21.65c-0.72,12.23-4.13,32.13-9.35,43.89c-5.76,12.95-14.39,30.22-27.34,38.85
			c-16.06,10.71-53.24,10.07-74.83,5.76c-29.67-5.93-47.68-32.05-51.8-40.29c-4.32-8.63-7.2-24.46-7.2-28.78
			c0-4.55,0-8.63,0.72-13.67C153.7,367.78,156.75,357.77,159.57,353.9z"/>
		<g id="tunga">
			<linearGradient id="SVGID_3_" gradientUnits="userSpaceOnUse" x1="237.0581" y1="461.5868" x2="237.0581" y2="427.7296">
				<stop  offset="0.2257" style="stop-color:#FEBDC9"/>
				<stop  offset="0.416" style="stop-color:#FEAFC9"/>
				<stop  offset="0.7063" style="stop-color:#FE9EC9"/>
			</linearGradient>
			<path class="st9" d="M304.95,427.03c-7.39-3.21-19.58-2.82-30.21-2.82c-14.39,0-37.41,7.2-37.41,7.2s-18.71-5.76-33.1-5.76
				c-11.61,0-28.85,0.87-35.06,2.32c8.84,10.41,23.12,22.64,42.26,26.46c21.59,4.32,58.76,4.95,74.83-5.76
				C293.89,443.58,300.02,435.48,304.95,427.03z"/>
		</g>
		<path d="M158.18,363.77c1.44-10.07,0-5.76,0-5.76c-1.56,5.82-3.06,15.46-2.16,20.87c1.44,8.63,10.07,28.78,40.29,30.22
			c30.22,1.44,77.71-4.32,94.97-11.51c6.3-2.63,12.8-7.56,18.15-14.02c2.12-3,4.17-6,6-8.81c2.67-4.86,4.65-10.21,5.59-15.86
			c-1.83,4.53-3.32,6.02-8.88,14.95c-4.32,6.94-12.6,13.55-21.23,17.86c-8.63,4.32-24.2,7.52-31.26,8.93
			c-7.2,1.44-20.84,2.98-30.97,3.43c-7.19,0.32-18.35-0.45-24.11-0.45s-15.33-0.2-28.28-5.95c-12.95-5.76-15.25-12.3-16.69-16.62
			C158.18,376.72,157.54,368.28,158.18,363.77z"/>
		<path d="M323.67,370.97c0-2.88-0.62-21.61-1.44-21.59c-1.01,12.3-3.77,49.49-8.63,60.44c-5.76,12.95-14.39,30.22-27.34,38.85
			c-16.06,10.71-53.24,10.07-74.83,5.76c-29.67-5.93-47.68-32.05-51.8-40.29c-4.32-8.63-7.2-24.46-7.2-28.78
			c0-1.56,1.41-14.33,1.44-15.83c-0.03-1.2-2.86,8.72-2.86,17.47c0,8.93,2.12,13.37,4,19c5.76,17.27,12.98,28.17,36,44
			c19.74,13.57,72.41,14.07,94,4c16.95-7.91,30.03-35.55,32.91-44.18C320.79,401.19,323.67,382.48,323.67,370.97z"/>
		<g id="tänder_1_">
			<path class="st7" d="M243.08,418.45c1.44,1.44,15.83,0,17.27-1.44c1.04-1.04-0.17-8.07-0.93-11.9
				c-5.68,0.87-11.67,1.63-17.76,2.25C241.75,409.32,242.19,417.56,243.08,418.45z"/>
			<path class="st7" d="M221.5,418.45c1.44,2.88,15.83,1.44,17.27,0c1.05-1.05,0.57-7.43,0.23-10.82
				c-6.29,0.6-12.64,1.06-18.82,1.35C220.33,412.48,220.69,416.83,221.5,418.45z"/>
			<path class="st7" d="M263.23,414.14c1.02,3.05,12.95,0,12.95-1.44c0-1.08,0-7.03-0.61-10.54c-4.2,0.92-8.82,1.79-13.72,2.57
				C261.96,407.2,262.28,411.29,263.23,414.14z"/>
			<path class="st7" d="M290.57,408.38c0.96-1.92,0-7.02-0.74-10.22c-3.27,1.23-7.42,2.42-12.18,3.53c0.07,3.28,0.35,9.57,1.41,9.57
				C280.5,411.26,289.13,411.26,290.57,408.38z"/>
			<path class="st7" d="M291.1,397.66c0.55,3.37,1.45,7.84,2.34,7.84c1.44,0,8.63-2.88,8.63-5.76c0-1.46-0.74-4.75-1.46-7.65
				c-3.05,2.33-6.21,4.2-9.33,5.49C291.23,397.61,291.16,397.64,291.1,397.66z"/>
			<path class="st7" d="M302.28,390.77c0.18,2.64,0.54,5.4,1.24,6.1c1.44,1.44,7.2-2.88,7.2-5.76c0-1.43-0.36-5-0.71-8.23
				C307.62,385.84,305.01,388.49,302.28,390.77z"/>
			<path class="st7" d="M316.47,381.04c0-1.34-0.31-4.25-0.65-6.97c-1.44,2.72-3.11,5.29-4.93,7.67c0.18,2.53,0.54,5.06,1.26,5.06
				C313.59,386.8,316.47,383.92,316.47,381.04z"/>
			<path class="st7" d="M201.43,409.27c0.13,3.5,0.47,8.29,1.36,9.18c1.44,1.44,12.95,1.44,14.39,0c0.91-0.91,0.67-5.85,0.37-9.36
				C211.93,409.31,206.5,409.38,201.43,409.27z"/>
			<path class="st7" d="M185.56,407.64c0.09,3.04,0.38,8.36,1.4,9.37c1.44,1.44,10.07,1.44,11.51,0c0.86-0.86,0.69-4.78,0.42-7.81
				c-0.87-0.03-1.73-0.06-2.58-0.1C192.37,408.91,188.8,408.4,185.56,407.64z"/>
			<path class="st7" d="M184.02,407.26c-3.8-1.02-7.12-2.38-10.01-3.99c0,3.03,0,8.41,0,9.43c0,1.44,7.2,2.88,8.63,2.88
				C183.58,415.58,183.91,410.67,184.02,407.26z"/>
			<path class="st7" d="M162.5,393.33c0,3.63,0,8.91,0,10.74c0,2.88,7.99,5.6,8.63,4.32c0.65-1.3,1.01-3.78,1.2-6.1
				C168.12,399.65,164.91,396.52,162.5,393.33z"/>
		</g>
	</g>
	<g id="ögonbryn_1_">
		<path d="M228.69,323.48c1.44,0,2.88-4.32,2.88-5.76c0-1.44-1.44-8.63-2.88-11.51c-1.29-2.57-4.32-8.63-8.63-11.51
			c-4.32-2.88-14.35-4.81-20.15-2.88c-4.32,1.44-11.51,4.32-14.39,7.2c-2.88,2.88-14.39,12.95-24.46,14.39c0,0,5.76,1.44,8.63,0
			c0,0,0,1.44-4.32,2.88c0,0,1.44,1.44,5.76,0c4.32-1.44,10.07-5.76,14.39-10.07c4.32-4.32,8.63-4.32,12.95-5.76
			c4.92-1.64,8.63-1.44,10.07-1.44c2.04,0,3.18,0.15,5.76,1.44c2.88,1.44,5.76,5.76,7.2,8.63c1.44,2.88,5.76,5.76,5.76,10.07
			C227.25,320.6,227.25,323.48,228.69,323.48z"/>
		<path d="M260.35,301.9c4.32-1.44,15.88-5.21,23.02-4.32c11.51,1.44,23.02,12.95,35.21,18.61c0.25,0.12,0.46-0.28,0.28-0.49
			c-1.68-2.06-7.38-9.16-11.03-15.24c-4.32-7.2-30.22-12.95-34.54-14.39c-4.21-1.4-11.51-1.44-15.83,0
			c-3.05,1.02-11.51,8.63-12.95,12.95c-1.08,3.24-2.16,9.71-2.63,13.35c-0.05,0.36,0.45,0.49,0.58,0.15c1.06-2.87,3-7.72,4.93-10.62
			c2.88-4.32,5.76-7.2,7.2-7.2c1.44,0-2.88,1.44-4.32,5.76c-0.62,1.85-2.69,6.75-0.34,13.48c0.1,0.28,0.5,0.27,0.58-0.01
			C251.33,310.96,254.64,303.8,260.35,301.9z"/>
	</g>
	<g id="rynkor_1_">
		<path d="M174.55,333.62c0,0,4.19-7.9,12.25-10.37s14.72-2.31,17.36-0.91c0,0-12.71,1.69-16.74,2.93
			C183.4,326.5,175.95,330.99,174.55,333.62z"/>
		<path d="M269.66,320.93c0,0,11.59-1.33,18.14,0.5c6.55,1.83,11.32,8.56,11.32,8.56s-6.46-5.13-13.01-6.96
			C279.56,321.2,269.66,320.93,269.66,320.93z"/>
	</g>
	<g id="ögon_1_">
		<g id="höger">
			<path class="st8" d="M243.93,353.9c-0.04,0.13,0.13,0.23,0.23,0.13c1.55-1.49,8.4-6.81,26.98-6.81c19.29,0,27.09,2.3,28.53,2.79
				c0.11,0.04,0.2-0.06,0.17-0.17c-0.86-2.54-8.19-22.85-24.38-24.2C258.45,324.22,247.02,342.36,243.93,353.9z"/>
			<path d="M246.68,358.74c0,0,8.63,7.2,25.9,5.76c0,0,10.07,0,12.95-4.32c0,0,0,2.88-1.44,4.32c0,0,10.07-1.44,12.95-4.32
				c0,0-5.76,8.63-27.34,8.63S246.68,358.74,246.68,358.74z"/>
			<path d="M306.21,344.45c0,0,5.65-1.67,6.98-4.11C313.18,340.34,312.42,344.66,306.21,344.45z"/>
			<path d="M306.77,346.33c0,0,6.21,0.21,9.42-2.78c0,0-3.21,3-6.98,4.11c0,0,4.32,0.77,5.44,4.54c0,0-1.11-3.77-7.32-3.98
				S306.77,346.33,306.77,346.33z"/>
			<circle cx="273.86" cy="338.36" r="7.69"/>
			<circle class="st7" cx="269.99" cy="336.88" r="1.9"/>
		</g>
		<g id="vänster">
			<path class="st10" d="M171.13,354.42c0,0,12.23-1.44,23.74-1.44s22.3,3.6,22.3,3.6s-2.16-25.18-17.27-25.9
				C187.67,330.09,178.33,331.39,171.13,354.42z"/>
			<path d="M170.41,364.49c0,0,12.95,4.32,21.59,4.32c8.63,0,20.15-7.2,21.59-8.63c0,0-5.76,14.39-21.59,14.39
				S171.85,367.37,170.41,364.49z"/>
			<path d="M164.35,338.3c0,0,1.11,3.77,7.32,3.98C171.67,342.28,164.14,344.51,164.35,338.3z"/>
			<path d="M168.46,345.28c0,0-5.65,1.67-8.09,0.34C160.37,345.62,163.37,348.83,168.46,345.28z"/>
			<path d="M170.9,346.6c0,0-4.54,5.44-8.86,4.67C162.04,351.27,166.92,353.92,170.9,346.6z"/>
			<circle cx="194.77" cy="343.85" r="7.42"/>
			<circle class="st7" cx="191.76" cy="341.32" r="1.9"/>
		</g>
	</g>
</g>
<g id="hatt">
	<g>
		<path class="st11" d="M297.58,129.8c0,0.21-0.16,0.42-0.48,0.63c-3.68,2.36-27.95,4.19-57.35,4.19s-53.67-1.83-57.35-4.19
			c-0.32-0.2-0.48-0.41-0.48-0.63c0-2.66,25.89-4.82,57.83-4.82S297.58,127.14,297.58,129.8z"/>
	</g>
	<path class="st12" d="M274.45,74.86v53.39c-0.12,0.03-0.23,0.07-0.38,0.1c-4.76,1.14-18.32,1.98-34.32,1.98s-29.57-0.84-34.32-1.98
		c-0.14-0.03-0.26-0.07-0.38-0.1V74.86H274.45z"/>
	<g>
		<path class="st11" d="M274.45,74.67c0,0.13-0.1,0.25-0.29,0.38c-2.21,1.42-16.77,2.52-34.41,2.52s-32.2-1.1-34.41-2.52
			c-0.19-0.12-0.29-0.25-0.29-0.38c0-1.6,15.53-2.89,34.7-2.89S274.45,73.08,274.45,74.67z"/>
	</g>
	<g>
		<path class="st13" d="M248.42,41.61v31.62c0,0.03-0.03,0.06-0.07,0.1c-0.06,0.03-0.13,0.06-0.23,0.09c-1,0.3-4.37,0.53-8.37,0.53
			s-7.37-0.23-8.37-0.53c-0.1-0.03-0.17-0.06-0.23-0.09c-0.04-0.04-0.07-0.07-0.07-0.1V41.61H248.42z"/>
	</g>
	<g>
		<path class="st14" d="M248.42,41.85c0,0.05-0.02,0.11-0.07,0.16c-0.55,0.59-4.19,1.04-8.6,1.04s-8.05-0.46-8.6-1.04
			c-0.05-0.05-0.07-0.1-0.07-0.16c0-0.66,3.88-1.2,8.67-1.2S248.42,41.19,248.42,41.85z"/>
	</g>
	<path d="M239.75,41.61c0,0,0-7.23,1.45-8.67l1.45,1.45c0,0-1.45,4.34-1.45,7.23H239.75z"/>
	<path class="st15" d="M238.3,37.27c0,0-4.34-1.45-4.34-8.67s5.78-7.23,7.23-11.57c1.45-4.34-4.34-10.12-4.34-10.12
		s11.57,5.78,11.57,13.01s4.34,8.67,2.89,13.01c-1.45,4.34-7.23,4.34-7.23,4.34s2.17-3.61,0.72-5.06
		C243.36,30.77,237.58,29.32,238.3,37.27z"/>
</g>
</svg>
