<?xml version="1.0" encoding="utf-8"?>
<!-- Generator: Adobe Illustrator 24.0.2, SVG Export Plug-In . SVG Version: 6.00 Build 0)  -->
<svg version="1.1" xmlns="http://www.w3.org/2000/svg" xmlns:xlink="http://www.w3.org/1999/xlink" x="0px" y="0px"
	 viewBox="0 0 480 480" style="enable-background:new 0 0 480 480;" xml:space="preserve">
<style type="text/css">
	.st0{fill:#D9DBDB;}
	.st1{fill:url(#SVGID_1_);}
	.st2{fill:#5591BE;}
	.st3{fill:#559ABE;}
	.st4{fill:url(#SVGID_2_);}
	.st5{fill:#427489;}
	.st6{fill:#345B68;}
	.st7{fill:#FE9EC9;}
	.st8{fill:#FEBDC9;}
	.st9{fill:#FFFE4F;}
	.st10{display:none;}
	.st11{display:inline;}
	.st12{fill:#FFFFFF;}
	.st13{fill:#6EABBA;}
	.st14{fill:#8BC8DA;}
	.st15{display:inline;fill:#559ABE;}
</style>
<g id="tårta">
	<ellipse class="st0" cx="239.75" cy="438.47" rx="213.25" ry="32.53"/>
	<g>
		<linearGradient id="SVGID_1_" gradientUnits="userSpaceOnUse" x1="239.75" y1="232.2626" x2="239.75" y2="493.062">
			<stop  offset="0" style="stop-color:#8BC8DA"/>
			<stop  offset="0.2474" style="stop-color:#86C2D7"/>
			<stop  offset="0.5614" style="stop-color:#76B3CF"/>
			<stop  offset="0.91" style="stop-color:#5D99C2"/>
			<stop  offset="1" style="stop-color:#5591BE"/>
		</linearGradient>
		<path class="st1" d="M445.05,244.02v195.16c-0.01,0.01-0.03,0.01-0.03,0.01c-9.69,8.75-98.08,24.58-205.27,24.58
			c-107.22,0-194.95-15.83-204.62-24.58c-0.3-0.26-0.53-0.55-0.68-0.82V244.02H445.05z"/>
	</g>
	<g>
		<path class="st2" d="M34.45,244.02c0,0-11.57,17.35,1.45,20.24c8.58,1.91,13.01-5.78,13.01-5.78s1.45,10.12,15.9,11.57
			c14.46,1.45,17.35-8.67,17.35-8.67s4.34,10.12,23.13,11.57s23.13-8.67,23.13-8.67s5.78,11.57,24.58,11.57s24.58-8.67,24.58-8.67
			s5.78,8.67,26.02,8.67s27.47-7.23,27.47-7.23s10.12,7.23,31.81,7.23s30.36-7.23,30.36-7.23s13.01,8.67,33.25,7.23
			c20.24-1.45,24.58-8.67,24.58-8.67s11.57,5.78,27.47,4.34c15.9-1.45,18.79-10.12,18.79-10.12s8.67,5.78,20.24,4.34
			s14.46-10.12,14.46-10.12s5.78,3.4,13.01,2.43c7.23-0.98,0-13.99,0-13.99H34.45z"/>
	</g>
	<g>
		<ellipse class="st3" cx="239.75" cy="244.62" rx="205.83" ry="17.15"/>
	</g>
	<g>
		<linearGradient id="SVGID_2_" gradientUnits="userSpaceOnUse" x1="239.75" y1="110.8185" x2="239.75" y2="316.7698">
			<stop  offset="0.5842" style="stop-color:#8BC8DA"/>
			<stop  offset="0.8315" style="stop-color:#5591BE"/>
		</linearGradient>
		<path class="st4" d="M326.5,239.68c0,3.99-38.83,7.23-86.75,7.23S153,243.67,153,239.68c0-0.32,0.25-0.64,0.72-0.94V132.19
			c5.52,3.54,41.93,6.29,86.02,6.29s80.5-2.75,86.02-6.29v106.55C326.25,239.04,326.5,239.68,326.5,239.68z"/>
	</g>
	<g>
		<path class="st2" d="M153,132.69c0,0,0,34.7,0,36.14c0,1.45-2.89,4.34-2.89,7.23s1.4,5.33,3.61,4.15
			c5.06-2.7-2.17-31.62,3.61-31.62s7.23,1.45,7.23,10.12s2.89,40.48,1.45,43.37c-1.45,2.89-2.54,6.32,0,10.12
			c2.89,4.34,7.23,2.89,8.67,0c1.23-2.47,1.41-4.54-0.35-8.21c-0.86-1.79-1.32-3.74-1.52-5.72c-1.06-10.49-2.97-38.77,7.66-35.23
			c13.01,4.34,10.12,52.05,10.12,57.83c0,4.34-1.45,7.23-1.45,10.12c0,1.45,1.31,4.06,3.93,4.32c2.64,0.26,4.85-2.1,4.74-4.75
			c-0.18-4.28-2.88-6.79-2.88-15.47c0-5.78-2.89-52.05,4.34-56.38c5.54-3.33,8.72,1.62,10.12,7.23c1.45,5.78,1.45,8.67,0,13.01
			c-0.65,1.94-0.91,5.4,0,7.23c1.45,2.89,5.78,2.89,7.23-1.45c1.45-4.34-4.31-8.81-2.89-15.9c1.45-7.23,5.78-10.12,8.67-10.12
			s5.78,2.89,5.78,8.67s1.45,36.14,0,39.04c-1.45,2.89-1.45,7.23,0,8.67c2.89,2.89,6.31,0.38,7.23-1.45
			c1.45-2.89-0.53-5.4-1.45-7.23c-1.45-2.89,0.31-21.43,1.45-23.13c2.89-4.34,10.12-4.34,11.57,2.89c1.45,7.23,4.15,37.75,2.8,41.29
			c-1.35,3.53-0.51,5.82,1.54,7.87c1.45,1.45,5.78,0,5.78-2.89s-1.45-4.34-1.45-7.23c0-5.78-2.89-47.71,4.34-59.28
			c7.66-12.26,14.58-14.67,24.58-8.67c7.23,4.34,5.78,37.59,5.78,39.04c0,1.45-1.45,4.34-1.45,7.23s2.89,4.34,4.34,4.34
			c2.89,0,5.94-2.95,4.34-7.23c-4.34-11.57-2.89-33.25,0-36.14c2.89-2.89,7.23,0,7.23,5.78s-1.45,8.67,0,11.57s3.69,2.74,4.34,1.45
			c1.45-2.89,0-5.78,0-7.23c0-1.45-1.79-12.67,1.45-15.9c2.89-2.89,11.57-2.89,11.57,4.34c0,7.23,1.45,26.02,0,28.92
			s0,7.23,2.89,7.23c4.34,0,5.78-2.89,4.34-5.78c-0.65-1.29-2.89-2.89-2.89-7.23s0-54.94,0-54.94H153z"/>
	</g>
	<g>
		<path class="st3" d="M326.5,132.69c0,0.32-0.25,0.64-0.72,0.94c-5.52,3.54-41.93,6.29-86.02,6.29s-80.5-2.75-86.02-6.29
			c-0.48-0.3-0.72-0.62-0.72-0.94c0-3.99,38.83-7.23,86.75-7.23S326.5,128.7,326.5,132.69z"/>
	</g>
	<g id="gasyr-cirklar">
		<g>
			<circle class="st2" cx="47.46" cy="268.59" r="2.89"/>
		</g>
		<g>
			<circle class="st2" cx="82.16" cy="272.93" r="2.89"/>
		</g>
		<g>
			<circle class="st2" cx="128.43" cy="275.82" r="2.89"/>
		</g>
		<g>
			<circle class="st2" cx="177.58" cy="277.27" r="2.89"/>
		</g>
		<g>
			<circle class="st2" cx="231.08" cy="277.27" r="2.89"/>
		</g>
		<g>
			<circle class="st2" cx="293.24" cy="277.27" r="2.89"/>
		</g>
		<g>
			<circle class="st2" cx="352.52" cy="274.38" r="2.89"/>
		</g>
		<g>
			<circle class="st2" cx="398.78" cy="268.59" r="2.89"/>
		</g>
		<g>
			<circle class="st2" cx="434.93" cy="262.81" r="2.89"/>
		</g>
	</g>
</g>
<g id="hatt">
	<g>
		<path class="st5" d="M297.58,129.8c0,0.21-0.16,0.42-0.48,0.63c-3.68,2.36-27.95,4.19-57.35,4.19s-53.67-1.83-57.35-4.19
			c-0.32-0.2-0.48-0.41-0.48-0.63c0-2.66,25.89-4.82,57.83-4.82S297.58,127.14,297.58,129.8z"/>
	</g>
	<path class="st6" d="M274.45,74.86v53.39c-0.12,0.03-0.23,0.07-0.38,0.1c-4.76,1.14-18.32,1.98-34.32,1.98s-29.57-0.84-34.32-1.98
		c-0.14-0.03-0.26-0.07-0.38-0.1V74.86H274.45z"/>
	<g>
		<path class="st5" d="M274.45,74.67c0,0.13-0.1,0.25-0.29,0.38c-2.21,1.42-16.77,2.52-34.41,2.52s-32.2-1.1-34.41-2.52
			c-0.19-0.12-0.29-0.25-0.29-0.38c0-1.6,15.53-2.89,34.7-2.89S274.45,73.08,274.45,74.67z"/>
	</g>
	<g>
		<path class="st7" d="M248.42,41.61v31.62c0,0.03-0.03,0.06-0.07,0.1c-0.06,0.03-0.13,0.06-0.23,0.09c-1,0.3-4.37,0.53-8.37,0.53
			s-7.37-0.23-8.37-0.53c-0.1-0.03-0.17-0.06-0.23-0.09c-0.04-0.04-0.07-0.07-0.07-0.1V41.61H248.42z"/>
	</g>
	<g>
		<path class="st8" d="M248.42,41.85c0,0.05-0.02,0.11-0.07,0.16c-0.55,0.59-4.19,1.04-8.6,1.04s-8.05-0.46-8.6-1.04
			c-0.05-0.05-0.07-0.1-0.07-0.16c0-0.66,3.88-1.2,8.67-1.2S248.42,41.19,248.42,41.85z"/>
	</g>
	<path d="M239.75,41.61c0,0,0-7.23,1.45-8.67l1.45,1.45c0,0-1.45,4.34-1.45,7.23H239.75z"/>
	<path class="st9" d="M238.3,37.27c0,0-4.34-1.45-4.34-8.67s5.78-7.23,7.23-11.57c1.45-4.34-4.34-10.12-4.34-10.12
		s11.57,5.78,11.57,13.01s4.34,8.67,2.89,13.01c-1.45,4.34-7.23,4.34-7.23,4.34s2.17-3.61,0.72-5.06
		C243.36,30.77,237.58,29.32,238.3,37.27z"/>
</g>
<g id="ansikte" class="st10">
	<g id="öga" class="st11">
		<g>
			<circle class="st12" cx="198" cy="363" r="30"/>
		</g>
		<g>
			<circle class="st13" cx="198.5" cy="362.5" r="16"/>
			<g>
				<path class="st2" d="M198.5,347c8.55,0,15.5,6.95,15.5,15.5s-6.95,15.5-15.5,15.5s-15.5-6.95-15.5-15.5S189.95,347,198.5,347
					 M198.5,346c-9.11,0-16.5,7.39-16.5,16.5s7.39,16.5,16.5,16.5s16.5-7.39,16.5-16.5S207.61,346,198.5,346L198.5,346z"/>
			</g>
		</g>
		<g>
			<circle class="st14" cx="198.5" cy="362.5" r="12.91"/>
		</g>
		<g>
			<circle cx="198.5" cy="362.5" r="9.33"/>
		</g>
		<g>
			<circle class="st12" cx="204.87" cy="355.33" r="3.59"/>
		</g>
		<g class="st10">
			<path class="st15" d="M229.9,374.49l0.1,0.01c0,12.34-14.45,21.5-32,21.5c-17.51,0-31.94-9.11-32-21.42l0.11-0.02
				C176,370,182,368,198,368S219,370,229.9,374.49z"/>
		</g>
		<g>
			<path class="st3" d="M226.23,345.45L226.23,345.45c-1.85-12.64-17.4-21.01-34.49-18.57c-17.11,2.45-29.7,14.88-27.89,27.54
				l0.01-0.01C183.19,344.54,204.91,341.42,226.23,345.45z"/>
		</g>
	</g>
	<g id="öga_2_" class="st11">
		<g>
			<circle class="st12" cx="288" cy="358" r="30"/>
		</g>
		<g>
			<circle class="st13" cx="288.5" cy="358.5" r="16"/>
			<g>
				<path class="st2" d="M288.5,343c8.55,0,15.5,6.95,15.5,15.5s-6.95,15.5-15.5,15.5s-15.5-6.95-15.5-15.5S279.95,343,288.5,343
					 M288.5,342c-9.11,0-16.5,7.39-16.5,16.5s7.39,16.5,16.5,16.5s16.5-7.39,16.5-16.5S297.61,342,288.5,342L288.5,342z"/>
			</g>
		</g>
		<g>
			<circle class="st14" cx="288.5" cy="358.5" r="12.91"/>
		</g>
		<g>
			<circle cx="288.5" cy="358.5" r="9.33"/>
		</g>
		<g>
			<circle class="st12" cx="294.87" cy="351.33" r="3.59"/>
		</g>
		<g>
			<path class="st3" d="M256.39,344.69L256.39,344.69c0.58-12.76,15.22-22.64,32.46-21.92c17.27,0.73,31.04,11.84,30.5,24.62
				l-0.01,0C299.12,339.49,277.2,338.55,256.39,344.69z"/>
		</g>
	</g>
	<g class="st11">
		<path d="M257.46,317.1c-4.71-2.69-3.71-13.78-2-16.29c0,0-0.44,4.43,1,4.57c0,0,1.34-6.12,5.12-7.53c0,0-1.91,4.82-1.19,4.89
			c0,0,3.35-4.68,7.13-6.09c0,0-1.71,2.51-0.99,2.58c0.72,0.07,10.7-5.18,19.34-4.32c0,0-4.59,2.22-3.15,2.37
			c1.44,0.14,9.63-1.72,17.91,2.69c0,0-7.2-0.72-5.85,0.31c1.35,1.03,12.26,0.72,18.75,8.53c0,0-6.95-2.87-5.69-0.96
			c0,0,11.43,8.2,14.32,16.19c2.09,5.77-1.3-0.33-2.56-1.51c-4.42-4.14-15.08-10.54-27.32-11.77c0,0,3.6,0.25,4.14,2.2
			c-2.05-0.69-6.3-2.42-9.99-1.9C282.74,311.59,265.17,321.5,257.46,317.1z"/>
	</g>
	<g class="st11">
		<path d="M224.19,318.85c4.2-2.72,0.36-13.21-4.89-18.38c0,0,2.05,4.8,1.2,4.97c0,0-2.21-5.02-6.35-7.68c0,0,2.93,3.92,2.09,4.09
			c0,0-6.61-6.3-16.77-4.19c0,0,5.52,1.05,5.74,2.1c0,0-23.76-3.83-36.63,6.51c0,0,7.4-2.63,10.38-1.06c0,0-14.96,3.78-24.96,15.78
			c1,0,2-1,2.75-0.78c-3.46,3.94-6.19,8.64-7.06,14.11c0,0,14.32-16.33,27.01-18.77c0,0-1.16,0.04-2.07,2.45
			c0,0,13.71-5.96,23.05-3.52C205.08,316.43,211.74,326.92,224.19,318.85z"/>
	</g>
	<path class="st11" d="M249,425c33-2,64.42-20.79,68-19c2,1,2,3-1,5s-35,20-63,23c-27.91,2.99-76-11-77-13c-0.89-1.79,0-4,2-4
		S215.06,427.06,249,425z"/>
</g>
<g id="ansikte-glad">
	<g id="öga_3_">
		<g>
			<circle class="st12" cx="198" cy="363" r="30"/>
		</g>
		<g>
			<circle class="st13" cx="198.5" cy="362.5" r="16"/>
			<g>
				<path class="st2" d="M198.5,347c8.55,0,15.5,6.95,15.5,15.5s-6.95,15.5-15.5,15.5s-15.5-6.95-15.5-15.5S189.95,347,198.5,347
					 M198.5,346c-9.11,0-16.5,7.39-16.5,16.5s7.39,16.5,16.5,16.5s16.5-7.39,16.5-16.5S207.61,346,198.5,346L198.5,346z"/>
			</g>
		</g>
		<g>
			<circle class="st14" cx="198.5" cy="362.5" r="12.91"/>
		</g>
		<g>
			<circle cx="198.5" cy="362.5" r="9.33"/>
		</g>
		<g>
			<circle class="st12" cx="204.87" cy="355.33" r="3.59"/>
		</g>
		<g>
			<path class="st3" d="M226.23,342.45L226.23,342.45c-1.85-12.64-17.4-21.01-34.49-18.57c-17.11,2.45-29.7,14.88-27.89,27.54
				l0.01-0.01C183.19,341.54,204.91,338.42,226.23,342.45z"/>
		</g>
	</g>
	<g id="öga_1_">
		<g>
			<circle class="st12" cx="288" cy="358" r="30"/>
		</g>
		<g>
			<circle class="st13" cx="288.5" cy="358.5" r="16"/>
			<g>
				<path class="st2" d="M288.5,343c8.55,0,15.5,6.95,15.5,15.5s-6.95,15.5-15.5,15.5s-15.5-6.95-15.5-15.5S279.95,343,288.5,343
					 M288.5,342c-9.11,0-16.5,7.39-16.5,16.5s7.39,16.5,16.5,16.5s16.5-7.39,16.5-16.5S297.61,342,288.5,342L288.5,342z"/>
			</g>
		</g>
		<g>
			<circle class="st14" cx="288.5" cy="358.5" r="12.91"/>
		</g>
		<g>
			<circle cx="288.5" cy="358.5" r="9.33"/>
		</g>
		<g>
			<circle class="st12" cx="294.87" cy="351.33" r="3.59"/>
		</g>
		<g>
			<path class="st3" d="M256.39,341.69L256.39,341.69c0.58-12.76,15.22-22.64,32.46-21.92c17.27,0.73,31.04,11.84,30.5,24.62
				l-0.01,0C299.12,336.49,277.2,335.55,256.39,341.69z"/>
		</g>
	</g>
	<g>
		<path d="M263.38,305.49c-4.91-3-3.31-14.02-1.36-16.42c0,0-0.69,4.39,0.85,4.63c0,0,1.73-6.03,5.84-7.19c0,0-2.28,4.69-1.51,4.81
			c0,0,3.81-4.45,7.93-5.61c0,0-1.95,2.4-1.18,2.52c0.77,0.12,11.71-4.47,20.92-3.03c0,0-5.02,1.92-3.48,2.16
			c1.54,0.24,10.39-1.08,19.05,3.88c0,0-7.68-1.2-6.28-0.08c1.4,1.12,13.1,1.54,19.67,9.77c0,0-7.31-3.33-6.05-1.34
			c0,0,11.85,8.96,14.57,17.14c1.96,5.9-1.38-0.42-2.68-1.68c-4.53-4.43-15.65-11.54-28.7-13.58c0,0,3.85,0.49,4.33,2.48
			c-2.16-0.83-6.63-2.84-10.61-2.56C290.72,301.66,271.42,310.4,263.38,305.49z"/>
	</g>
	<g>
		<path d="M217.47,305.62c3.96-3.07-0.75-13.19-6.41-17.9c0,0,2.44,4.61,1.61,4.86c0,0-2.62-4.82-6.97-7.12c0,0,3.25,3.66,2.42,3.9
			c0,0-7.11-5.73-17.06-2.77c0,0,5.59,0.58,5.89,1.61c0,0-24-1.83-35.95,9.55c0,0,7.16-3.24,10.25-1.92c0,0-14.6,5.02-23.56,17.81
			c1-0.08,1.91-1.16,2.67-1.01c-3.12,4.21-5.45,9.13-5.86,14.65c0,0,12.9-17.47,25.35-20.97c0,0-1.15,0.13-1.86,2.61
			c0,0,13.16-7.09,22.67-5.43C198.23,304.8,205.73,314.7,217.47,305.62z"/>
	</g>
	<g>
		<path class="st12" d="M252,411c27-1,61.08-8.56,65.03-9.71s-1.21,27.24-21.54,38.85c-22.53,12.87-62.42,16.39-91.86,5.5
			c-20.2-7.47-35.31-33.68-29.27-32.91C180.4,413.5,224.02,412.04,252,411z"/>
	</g>
	<g>
		<path d="M255,422c-26.19,2.07-60.44,0.34-79.21-0.94c3.25,5.52,9.15,12.72,16.51,18.23C208.59,440,234.04,440,251,440
			c17.53,0,40.39-3.2,51.44-4.93c8.99-8.16,13.76-19.53,15.28-26.78C304.46,415.13,278.33,420.16,255,422z"/>
	</g>
	<g>
		<path class="st7" d="M274,429c-11,1-18,5-23,5s-17-3-35-3c-12.35,0-22.82,2.82-28.17,4.6c3.86,3.51,8.29,6.68,13.06,8.88
			c11.73,1.67,36.4,2.43,50.11,1.52c11.21-0.75,31.92-3.17,41.66-4.35c0.97-0.49,1.92-0.99,2.83-1.51
			c3.93-2.25,7.29-5.13,10.14-8.29C298.62,429.32,282.8,428.2,274,429z"/>
	</g>
</g>
</svg>
