<?xml version="1.0" encoding="utf-8"?>
<!-- Generator: Adobe Illustrator 24.0.2, SVG Export Plug-In . SVG Version: 6.00 Build 0)  -->
<svg version="1.1" xmlns="http://www.w3.org/2000/svg" xmlns:xlink="http://www.w3.org/1999/xlink" x="0px" y="0px"
	 viewBox="0 0 480 480" style="enable-background:new 0 0 480 480;" xml:space="preserve">
<style type="text/css">
	.st0{opacity:0.31;fill:#C4C4C4;}
	.st1{fill:#FFFE8A;}
	.st2{fill:#FEBDC9;}
	.st3{fill:#8BC8DA;}
	.st4{opacity:0.27;fill:#A5A5A5;}
	.st5{fill:#9CEAA4;}
	.st6{fill:#9CD4A4;}
	.st7{fill:#FFFFFF;}
	.st8{fill:#77B9DA;stroke:#6BA8DA;stroke-miterlimit:10;}
	.st9{display:none;}
	.st10{display:inline;}
	.st11{fill:#FFED7E;}
</style>
<g id="hatt">
	
		<ellipse transform="matrix(0.9998 -0.0185 0.0185 0.9998 -8.0113 4.7609)" class="st0" cx="253.86" cy="436.29" rx="170.58" ry="33.74"/>
	<path class="st1" d="M416.92,428.8C417.22,438.18,376,458,287,464c-89.27,6.02-193.62-15.42-193.92-24.8
		c-0.03-0.8,1.42-2.7,1.42-2.7c12.99-33.61,143.45-370,152-370c8.93,0,167.52,355.59,170,361.14c0,0.01,0,0.01,0,0.01
		C416.77,428.03,416.91,428.41,416.92,428.8z"/>
	<path class="st2" d="M408.44,409.6c-3.34-7.45-7.59-16.94-12.56-27.99c-55.35,22.8-135.27,23.44-135.27,23.44
		c-73.71-1.18-119.17-9.65-146.74-18.4c-4.66,11.94-8.7,22.33-11.93,30.65c33.9,9.58,86.71,19.27,159.06,17.7
		C334.94,433.39,381.31,420.88,408.44,409.6z"/>
	<path class="st2" d="M273.88,116.79c-11.7,1.07-20.67,1.48-20.67,1.48c-12.31-0.2-22.58-0.64-31.17-1.22
		c-1.89,4.43-3.86,9.09-5.9,13.94c10.35,0.85,22.61,1.32,36.85,1.01c10.56-0.23,19.66-0.76,27.52-1.47
		C278.22,125.75,276.01,121.16,273.88,116.79z"/>
	<path class="st3" d="M285.73,141.43c-17.04,2.03-32.85,2.75-32.85,2.75c-17.64-0.28-31.12-1.07-41.39-2.05
		c-1.86,4.46-3.76,9.06-5.7,13.77c12.14,1.44,27.72,2.43,46.87,2.01c16.47-0.36,29.44-1.46,39.54-2.8
		C290,150.43,287.84,145.86,285.73,141.43z"/>
	<path class="st3" d="M380.7,347.92c-1.48,2.55-3.62,4.52-6.7,5.08c-11,2-11-13-27-10s-17,19-29,20s-8-15-30-14s-19,19-33,19
		s-9-18-34-18s-23,16-33,15s-8-16-23-17s-17,15-26,12c-4.8-1.6-7.89-6.04-10.79-9.99c-1.85,4.71-3.65,9.31-5.39,13.77
		c3.04,6.03,6.3,12.93,13.19,15.22c12,4,16-14,28-13c7.97,0.66,2,18,22,19s22-17,35-17s12,21,34,21s19-21,32-21s18,16,33,14
		s21-17,30-19s19,10,29,8c4.62-0.92,7.51-3.55,9.31-6.21C385.88,359.4,383.34,353.76,380.7,347.92z"/>
	<path class="st4" d="M246.92,66.69c-0.16-0.11-0.31-0.19-0.42-0.19c-8.55,0-139.01,336.39-152,370c0,0-1.45,1.9-1.42,2.7
		c0.11,3.37,13.67,8.31,35.15,12.96C114.91,398.79,234.31,98.21,246.92,66.69z"/>
	<circle class="st5" cx="248.5" cy="47.5" r="28.5"/>
	<path class="st6" d="M247.98,75.99C239,72,227,65,227,47c0-15.13,8.41-22.02,13.71-26.91C228.76,23.48,220,34.46,220,47.5
		C220,63.07,232.48,75.71,247.98,75.99z"/>
</g>
<g id="ansikte">
	<g id="öga">
		<circle class="st7" cx="229" cy="241" r="30"/>
		<circle class="st8" cx="223" cy="232" r="18"/>
		<circle class="st3" cx="222" cy="231" r="14"/>
		<circle cx="221" cy="230" r="9"/>
		<circle class="st7" cx="227.75" cy="222.25" r="4.95"/>
	</g>
	<g id="öga_1_">
		<circle class="st7" cx="300.5" cy="234.5" r="24.5"/>
		<circle class="st8" cx="295.6" cy="227.15" r="14.7"/>
		<circle class="st3" cx="294.88" cy="225.43" r="11.13"/>
		<circle cx="293.6" cy="225.15" r="7.35"/>
		<circle class="st7" cx="300.11" cy="219.64" r="4.04"/>
	</g>
	<path class="st4" d="M275.75,315.8c6.8,0.07,20.35-2.21,28.93-4.01c3.08-0.65-10.85,11.42-28.25,12.61
		c-13.56,0.92-34.94-8.93-29.57-8.88C251.97,315.57,268.96,315.74,275.75,315.8z"/>
	<path id="mun" d="M261,303c50,1,58.78-4.61,62-3c2,1,1,4-3,5c-2.91,0.73-96,4-99,3s-1.83-3.59,1-5C226,301,253,302.84,261,303z"/>
	<path d="M278.43,212.45c-4.29,0.14-3.89-11.5-1.86-12.8c0,0,0.29,1.97,1.74,1.76c0,0,2.48-3.38,6.55-5.98c0,0-2.48,3.38-1.02,3.17
		c1.45-0.21,11.49-7.7,20.34-2.95c0,0-3.77-0.46-4.36,0.63c0,0,12.92,2.15,16.97,9.61c0,0-8.99-5.73-20.61-4.05
		S287.29,212.18,278.43,212.45z"/>
	<path d="M248.43,192.12c3.91-1.32,1.26-7.93-3.29-10.13c-4.02-1.95-25.47-5.59-29.27-0.07c0,0,3.7-0.79,2.97,0.42
		c-0.73,1.21-12.35,2.68-20.38,16.01c0,0,15.54-12.1,28.15-11.11C239.22,188.22,237.03,195.98,248.43,192.12z"/>
</g>
<g id="ansikte-glad" class="st9">
	<g id="öga_3_" class="st10">
		<circle class="st7" cx="229" cy="241" r="30"/>
		<circle class="st8" cx="229" cy="240" r="18"/>
		<circle class="st3" cx="229" cy="240" r="14"/>
		<circle cx="229" cy="240" r="9"/>
		<circle class="st7" cx="233.75" cy="232.25" r="4.95"/>
	</g>
	<g id="öga_4_" class="st10">
		<circle class="st7" cx="298" cy="236" r="28"/>
		<circle class="st8" cx="298" cy="235.07" r="16.8"/>
		<circle class="st3" cx="298" cy="235.07" r="13.07"/>
		<circle cx="298" cy="235.07" r="8.4"/>
		<circle class="st7" cx="302.43" cy="227.83" r="4.62"/>
	</g>
	<path class="st10" d="M276.09,191.01c-4.14-1.14-0.32-12.14,2.01-12.78c0,0-0.31,1.97,1.14,2.19c0,0,3.36-2.49,8.02-3.78
		c0,0-3.36,2.49-1.91,2.72c1.45,0.23,13.25-3.97,20.3,3.18c0,0-3.47-1.55-4.35-0.68c0,0,11.71,5.87,13.38,14.19
		c0,0-6.9-8.13-18.5-9.95C284.58,184.28,284.64,193.35,276.09,191.01z"/>
	<path class="st10" d="M247.66,190.45c3.74-1.73,0.42-8.01-4.34-9.73c-4.21-1.52-25.92-2.89-29.12,3.01c0,0,3.6-1.18,3,0.1
		c-0.6,1.28-12,3.97-18.58,18.06c0,0,14.18-13.67,26.83-14.01C238.09,187.54,236.72,195.49,247.66,190.45z"/>
	<g id="mun_1_" class="st10">
		<path class="st7" d="M277.49,290.41c24.87-2.76,48.58-9.36,52.69-11.14c4.1-1.78,5.94,1.33,3.78,4.21
			c-2.16,2.89-17.94,35.07-53.22,39.15c-35.82,4.14-73.74-25.07-74.57-28.12s0.38-6.99,5.32-5.72S253.3,293.09,277.49,290.41z"/>
		<path d="M276,298c-25.99,2.23-55.84-1.06-69.48-2.9c2.44,3.15,17.37,14.58,36.57,21.82c12.78-0.96,28.83-2.31,34.91-2.92
			c6.5-0.65,22.7-2.57,33.26-3.83c12.92-9.81,19.92-22.23,22.15-25.85C322.7,288.93,298.63,296.06,276,298z"/>
		<path class="st2" d="M255,308c-7.6,0.76-17.2,2.37-22.33,4.44c5.04,2.44,10.57,4.72,16.39,6.54c8.7-0.06,24.3-0.27,29.95-0.97
			c5.86-0.73,18.15-2,24.31-2.63c4.46-2.47,8.38-5.35,11.81-8.35c-4.8-1.11-13.08-2.69-19.12-2.02c-9,1-13,4-18,4S265,307,255,308z"
			/>
	</g>
</g>
<g id="ansikte-ledsen" class="st9">
	<g id="öga_5_" class="st10">
		<circle class="st7" cx="229" cy="241" r="30"/>
		<circle class="st8" cx="237" cy="252" r="15"/>
		<circle class="st3" cx="238.67" cy="253.67" r="11.67"/>
		<circle cx="240.33" cy="254.33" r="7.5"/>
		<circle class="st7" cx="245.96" cy="249.38" r="3.04"/>
		<path class="st11" d="M229,246l-33.82,3.45c-2.12-20.74,11.41-39.36,29.96-41.26c18.56-1.89,35.57,13.61,37.68,34.35L229,246z"/>
	</g>
	<g id="öga_2_" class="st10">
		<circle class="st7" cx="300.5" cy="234.5" r="24.5"/>
		<circle class="st8" cx="307.6" cy="243.15" r="12.4"/>
		<circle class="st3" cx="309.52" cy="244.23" r="9.38"/>
		<circle cx="309.97" cy="244.68" r="6.2"/>
		<circle class="st7" cx="315.78" cy="240.87" r="2.22"/>
		<path class="st11" d="M301.27,237.86l-27.5-0.17c0.09-16.48,12.47-29.99,27.5-29.99c15.09,0,27.5,13.61,27.5,30.16H301.27z"/>
	</g>
	<path class="st10" d="M286.46,200.65c-3.79-2.02,2.35-11.91,4.77-12.03c0,0-0.73,1.85,0.63,2.39c0,0,3.83-1.69,8.66-1.92
		c0,0-3.83,1.69-2.46,2.23c1.36,0.54,13.8-0.95,19.1,7.57c0,0-3.04-2.28-4.09-1.62c0,0,10.13,8.3,9.93,16.78
		c0,0-4.94-9.45-15.86-13.78S294.28,204.83,286.46,200.65z"/>
	<path class="st10" d="M238.5,200.7c3.45-2.26-0.76-7.99-5.72-8.99c-4.38-0.88-26.06,0.95-28.36,7.26c0,0,3.38-1.69,2.98-0.34
		c-0.4,1.36-11.29,5.69-15.72,20.6c0,0,12.02-15.6,24.48-17.8C228.6,199.23,228.42,207.29,238.5,200.7z"/>
	<path class="st10" d="M292.8,297.56c-6.53,0.53-17.84,6.87-17.51,10.92c0.13,1.62,3.03,2.65,4.92,0.42
		c0.74-0.88,1.97-5.87,13.24-7.59c4.89-0.75,7.29-0.59,7.16-2.21C300.49,297.47,294.42,297.43,292.8,297.56z"/>
</g>
</svg>
