<?xml version="1.0" encoding="utf-8"?>
<!-- Generator: Adobe Illustrator 24.0.2, SVG Export Plug-In . SVG Version: 6.00 Build 0)  -->
<svg version="1.1" xmlns="http://www.w3.org/2000/svg" xmlns:xlink="http://www.w3.org/1999/xlink" x="0px" y="0px"
	 viewBox="0 0 480 599" style="enable-background:new 0 0 480 599;" xml:space="preserve">
<style type="text/css">
	.st0{fill:#FFFE8A;}
	.st1{fill:#FFEA80;}
	.st2{fill:#FFFEB8;}
	.st3{fill:#FFD958;}
</style>
<g id="Lager_1">
</g>
<g id="Lager_2">
	<g>
		<path class="st0" d="M475.86,249.01c0.09,2.44,0.14,4.93,0.14,7.47c0,218.89-170.25,286.64-221.85,302.15
			c-1.87,0.56-7.24,1.09-9.15,1.37c5.9,8.79,16.03,25.15,14.5,30.5c-2,7-32,2-40-2c-6.15-3.08,8.54-21.15,14.5-29.5
			c-1.69-0.52-5.86-1.54-7.48-2.29C58.37,478.82,18.15,346.68,8.52,287.16c-2.82-14.18-4.36-28.81-4.51-43.78
			C2.72,112.25,107.46,5.77,238.59,5C369.58,4.24,476,110.19,476,241C476,243.68,475.96,246.35,475.86,249.01z"/>
	</g>
	<g>
		<path class="st1" d="M250.72,5.24c-4.02-0.18-8.07-0.26-12.13-0.24C107.46,5.77,2.72,112.25,4.01,243.38
			c0.15,14.97,1.69,29.6,4.51,43.78c9.63,59.52,49.85,191.66,218,269.55c1.62,0.75,5.79,1.77,7.48,2.29
			c-5.96,8.35-20.65,26.42-14.5,29.5c8,4,38,9,40,2c1.53-5.35-8.6-21.71-14.5-30.5c0.93-0.14,2.68-0.33,4.45-0.56
			C187.46,535.4,34,435.13,39,254C44,73,177,20,250.72,5.24z"/>
	</g>
	<g>
		<path class="st2" d="M393,72c35.77,29.08,56,86,53,92c-6-3-12-24-61-69c-30.06-27.61-88-45-76-57C329,18,367.82,51.53,393,72z"/>
	</g>
	<g>
		<path class="st3" d="M259.56,590.21c-1.86-2.44-10.08-5.03-20.14-6.16c-10.73-1.2-19.78-0.31-21.39,1.97
			c0.05,1.14,0.5,2,1.47,2.49c8,4,38,9,40,2C259.53,590.41,259.54,590.3,259.56,590.21z"/>
	</g>
</g>
</svg>
